<svg xmlns="http://www.w3.org/2000/svg" viewBox="0 0 54.77 53.64"><defs><style>.cls-1{fill:#d9d6c7;}</style></defs><g id="레이어_2" data-name="레이어 2"><g id="레이어_3" data-name="레이어 3"><path class="cls-1" d="M35.68.2Q27.75,1.48,19.73,2c-2.68.18-5.36.29-8.06.28-.67,0-1.35,0-2,0s-1.41-.1-2-.11A5.51,5.51,0,0,0,4.36,3,6.06,6.06,0,0,0,2.19,5.7a15,15,0,0,0-1,3.69A34.26,34.26,0,0,0,1,17.3a59.57,59.57,0,0,0,1.2,7.87,31.76,31.76,0,0,0,2.7,7.41A28.15,28.15,0,0,0,9.42,39a14.41,14.41,0,0,0,6.18,4.11c.29.06.58.14.87.19l.85.06c.63,0,1.27-.05,1.88-.13A16.14,16.14,0,0,0,21,42.83a11.52,11.52,0,0,0,1.73-.63,14,14,0,0,0,5.66-4.67c3-4.08,4.48-9.27,5.49-14.41A130.14,130.14,0,0,0,35.57,7.27h.2a86.59,86.59,0,0,1-.3,16.09c-.72,5.33-2,10.81-5.32,15.43a15.48,15.48,0,0,1-6.57,5.34,14.45,14.45,0,0,1-2,.67,19.16,19.16,0,0,1-2.1.35,18.79,18.79,0,0,1-2.12.09l-1.14-.11c-.37-.06-.72-.17-1.09-.26A15.4,15.4,0,0,1,8.24,40a27.1,27.1,0,0,1-4.3-7C1.71,28.06,1,22.65.38,17.36a45.42,45.42,0,0,1-.3-8.09A15.53,15.53,0,0,1,.89,5.18,7.43,7.43,0,0,1,3.41,1.59,6.84,6.84,0,0,1,7.7.36c.77,0,1.34.06,2,.09l2,.07c2.65,0,5.31,0,8-.06l16-.46Z"/><path class="cls-1" d="M35.74,12.52a11.65,11.65,0,0,0,4.83,1.12,18.49,18.49,0,0,0,2.47-.1c.82-.11,1.6-.27,2.44-.45a22.47,22.47,0,0,1,5.27-.76l.75.08a7.51,7.51,0,0,1,.78.21A5.4,5.4,0,0,1,53,13a3.62,3.62,0,0,1,.64.59,5.14,5.14,0,0,1,1,2.83,27.75,27.75,0,0,1-.25,5.28c-.21,1.71-.45,3.41-.67,5.11-.46,3.41-.89,6.81-1.57,10.2a32.18,32.18,0,0,1-3.47,9.88,16.4,16.4,0,0,1-3.42,4.23,10.36,10.36,0,0,1-5.09,2.39,11.75,11.75,0,0,1-2.77.06l-1.34-.09c-.45-.06-.89-.17-1.33-.25a16,16,0,0,1-2.62-.74c-.43-.16-.83-.4-1.24-.6a7.16,7.16,0,0,1-1.18-.72A9.88,9.88,0,0,1,26.35,47a10.34,10.34,0,0,1-.77-5.19h.2a10.05,10.05,0,0,0,4.84,8.06,11.81,11.81,0,0,0,4.51,1.47c.41,0,.8.12,1.2.16l1.23,0a9.45,9.45,0,0,0,2.34-.12c3-.48,5.51-2.73,7.24-5.49a41.47,41.47,0,0,0,4-9.17,49.08,49.08,0,0,0,2-10c.15-1.7.2-3.4.19-5.11a28.61,28.61,0,0,0-.28-5,3.93,3.93,0,0,0-.74-1.91,2.27,2.27,0,0,0-1.67-.67,27.84,27.84,0,0,0-4.89.51c-3.42.61-7.34.27-10.14-1.93Z"/><path class="cls-1" d="M7,17.44A4.25,4.25,0,0,1,8.55,15.5,4.71,4.71,0,0,1,11,14.61a3.91,3.91,0,0,1,2.61.72A3.53,3.53,0,0,1,15,17.44a16.57,16.57,0,0,0-2.1-.7,5.69,5.69,0,0,0-1.78-.14A31.84,31.84,0,0,0,7,17.44Z"/><path class="cls-1" d="M21.83,17.44a3.9,3.9,0,0,1,1.38-2,4.32,4.32,0,0,1,2.45-1,3.69,3.69,0,0,1,2.56.85,3.86,3.86,0,0,1,.84,1,4.47,4.47,0,0,1,.44,1.17c-.43-.13-.75-.31-1.1-.44a8.42,8.42,0,0,0-1-.33,4.61,4.61,0,0,0-1.69-.22A16.35,16.35,0,0,0,21.83,17.44Z"/><path class="cls-1" d="M18.07,18.6a9.32,9.32,0,0,1,.78,2.51,14,14,0,0,1,.22,2.5,15.15,15.15,0,0,1-.21,2.5,9.4,9.4,0,0,1-.79,2.5,9.4,9.4,0,0,1-.79-2.5,15.15,15.15,0,0,1-.21-2.5,14,14,0,0,1,.22-2.5A9.32,9.32,0,0,1,18.07,18.6Z"/><path class="cls-1" d="M12.5,31.61a20.34,20.34,0,0,0,2.87,2.27,5.16,5.16,0,0,0,2.92.86,7.09,7.09,0,0,0,3-1l1.5-1a14.42,14.42,0,0,1,1.56-1.11,13.6,13.6,0,0,1-.84,1.77,12.29,12.29,0,0,1-1.26,1.56,6.16,6.16,0,0,1-3.85,1.8,5.29,5.29,0,0,1-4-1.65A6.79,6.79,0,0,1,12.5,31.61Z"/><path class="cls-1" d="M37.5,28.61a7.26,7.26,0,0,1,.79,2.16,11.47,11.47,0,0,1,.21,2.17,10.64,10.64,0,0,1-.21,2.17,7.42,7.42,0,0,1-.79,2.17,7.11,7.11,0,0,1-.78-2.17,10.81,10.81,0,0,1,0-4.34A7.51,7.51,0,0,1,37.5,28.61Z"/><path class="cls-1" d="M41.34,27.27a3.06,3.06,0,0,1,1.18-1.8,3.55,3.55,0,0,1,2.14-.74,3.32,3.32,0,0,1,2.18.73,3.55,3.55,0,0,1,.75.8,4.07,4.07,0,0,1,.42,1c-.76-.13-1.32-.32-1.87-.4a6.29,6.29,0,0,0-1.45-.14A16.15,16.15,0,0,0,41.34,27.27Z"/><path class="cls-1" d="M32.84,44.28A4.39,4.39,0,0,1,34.63,42a5.07,5.07,0,0,1,2.95-.85,5.46,5.46,0,0,1,2.89.94,7.26,7.26,0,0,1,1.09,1,6.9,6.9,0,0,1,.78,1.23A11.63,11.63,0,0,1,41,43.86c-.43-.11-.83-.27-1.22-.36a9.82,9.82,0,0,0-2.26-.36,7.56,7.56,0,0,0-2.23.27A17.48,17.48,0,0,0,32.84,44.28Z"/></g></g></svg>