<svg xmlns="http://www.w3.org/2000/svg" viewBox="0 0 53.31 66.78"><defs><style>.cls-1{fill:#d9d6c7;}</style></defs><g id="레이어_2" data-name="레이어 2"><g id="레이어_3" data-name="레이어 3"><path class="cls-1" d="M8,66.39c7.19,0,14.38,0,21.57-.14l10.79-.17,2.7,0a22.64,22.64,0,0,0,2.64-.11,7.07,7.07,0,0,0,4.34-2.41,7,7,0,0,0,1.71-4.59l-.09-5.39L51.5,42.75l-.06-5.4,0-2.7,0-1.34a7.6,7.6,0,0,0-.09-1.2,6.53,6.53,0,0,0-2.25-4,6.66,6.66,0,0,0-4.31-1.58c-7.19,0-14.38-.05-21.57-.14L12.39,26.2l-2.7-.05a25,25,0,0,0-2.61,0A7.09,7.09,0,0,0,.82,33l-.1,5.39L.54,49.15l-.05,5.4,0,2.7a17.11,17.11,0,0,0,.08,2.68,7.47,7.47,0,0,0,2.53,4.61A7.65,7.65,0,0,0,8,66.39Zm0,0a7.74,7.74,0,0,1-5-1.82A7.58,7.58,0,0,1,.46,59.94a20.17,20.17,0,0,1-.11-2.69l0-2.7-.06-5.4L.09,38.37,0,33a8.1,8.1,0,0,1,6.92-8,26.79,26.79,0,0,1,2.77-.13l2.7,0,10.79-.18c7.19-.09,14.38-.12,21.57-.13a8.66,8.66,0,0,1,5.59,2.09,8.5,8.5,0,0,1,2.87,5.22,9.57,9.57,0,0,1,.1,1.49v1.34l0,2.7-.05,5.4L53,53.53l-.1,5.41a8.13,8.13,0,0,1-2.14,5.23,8,8,0,0,1-5,2.55,23.07,23.07,0,0,1-2.75,0l-2.7,0-10.79-.18C22.39,66.44,15.2,66.41,8,66.39Z"/><path class="cls-1" d="M8.77,61.89c5.19,0,10.39,0,15.58-.14l7.79-.17,3.9-.09a3,3,0,0,0,2.66-1.78,2.8,2.8,0,0,0,.22-.8,6.3,6.3,0,0,0,0-.89l0-2-.09-3.89-.18-7.79-.1-7.79V34.17c0-.12,0-.24,0-.35a2.19,2.19,0,0,0-.2-.66,2.43,2.43,0,0,0-2.22-1.4c-5.19,0-10.38-.05-15.58-.14l-7.79-.17-3.89-.1a2.89,2.89,0,0,0-2.66,1.59,2.84,2.84,0,0,0-.27.79,6.07,6.07,0,0,0-.06.9l0,1.95-.09,3.89-.17,7.79-.11,7.79v2a4,4,0,0,0,.31,1.89A3.42,3.42,0,0,0,8.77,61.89Zm0,0a3.43,3.43,0,0,1-3.12-2A3.91,3.91,0,0,1,5.32,58v-2L5.2,48.26,5,40.47l-.09-3.89-.05-1.95a4.29,4.29,0,0,1,.33-2.11,4,4,0,0,1,3.57-2.36l3.89-.09,7.79-.17c5.2-.1,10.39-.13,15.58-.14a4.43,4.43,0,0,1,4,2.58,4.17,4.17,0,0,1,.35,1.19,4.46,4.46,0,0,1,.05.63V36.6l-.1,7.79-.18,7.79-.09,3.89,0,2a6.68,6.68,0,0,1-.07,1,3.57,3.57,0,0,1-.35,1.06A3.89,3.89,0,0,1,36,62.3l-3.9-.1L24.35,62C19.16,61.94,14,61.91,8.77,61.89Z"/><path class="cls-1" d="M42.6,34.13a5.08,5.08,0,0,1,1.66-.78,6.76,6.76,0,0,1,1.66-.22,6.24,6.24,0,0,1,1.65.22,4.9,4.9,0,0,1,1.66.78,4.75,4.75,0,0,1-1.66.79,5.84,5.84,0,0,1-1.65.21,6.74,6.74,0,0,1-1.66-.21A4.92,4.92,0,0,1,42.6,34.13Z"/><path class="cls-1" d="M42.6,38a4.88,4.88,0,0,1,1.66-.78A6.31,6.31,0,0,1,45.92,37a6.67,6.67,0,0,1,1.65.21,4.75,4.75,0,0,1,1.66.79,4.75,4.75,0,0,1-1.66.79,6.67,6.67,0,0,1-1.65.21,6.31,6.31,0,0,1-1.66-.22A4.88,4.88,0,0,1,42.6,38Z"/><path class="cls-1" d="M42.6,41.26a4.88,4.88,0,0,1,1.66-.78,6.31,6.31,0,0,1,1.66-.22,6.67,6.67,0,0,1,1.65.21,4.75,4.75,0,0,1,1.66.79,4.75,4.75,0,0,1-1.66.79,6.67,6.67,0,0,1-1.65.21A6.31,6.31,0,0,1,44.26,42,4.7,4.7,0,0,1,42.6,41.26Z"/><path class="cls-1" d="M42.6,44.51a5.08,5.08,0,0,1,1.66-.78,6.31,6.31,0,0,1,1.66-.22,6.24,6.24,0,0,1,1.65.22,4.55,4.55,0,0,1,1.66.78,4.75,4.75,0,0,1-1.66.79,6.67,6.67,0,0,1-1.65.21,6.74,6.74,0,0,1-1.66-.21A4.92,4.92,0,0,1,42.6,44.51Z"/><path class="cls-1" d="M42.6,47.76A5.08,5.08,0,0,1,44.26,47a6.31,6.31,0,0,1,1.66-.22,6.24,6.24,0,0,1,1.65.22,4.55,4.55,0,0,1,1.66.78,4.75,4.75,0,0,1-1.66.79,6.23,6.23,0,0,1-1.65.21,6.74,6.74,0,0,1-1.66-.21A4.92,4.92,0,0,1,42.6,47.76Z"/><path class="cls-1" d="M48.61,56.77a3.55,3.55,0,0,1-3,3.49,3.46,3.46,0,0,1-2.73-.76,3.53,3.53,0,1,1,5.73-2.73Zm0,0a2.6,2.6,0,0,0-1-2,2.44,2.44,0,0,0-2-.47,2.56,2.56,0,0,0,0,5,2.49,2.49,0,0,0,2-.48A2.6,2.6,0,0,0,48.61,56.77Z"/><path class="cls-1" d="M37,0c-1.79,4.48-3.84,8.83-5.93,13.15s-4.32,8.58-6.6,12.8l-.74,1.38-.89-1.25q-2.82-4-5.53-8c-.89-1.37-1.79-2.72-2.65-4.11s-1.72-2.76-2.54-4.18q1.63,1.83,3.2,3.7c1.06,1.24,2.07,2.51,3.11,3.77q3,3.83,6,7.72l-1.63.12Q26,18.64,29.53,12.35C31.9,8.18,34.31,4,37,0Z"/></g></g></svg>