<svg xmlns="http://www.w3.org/2000/svg" viewBox="0 0 54.3 54.23"><defs><style>.cls-1{fill:#d9d6c7;}</style></defs><g id="레이어_2" data-name="레이어 2"><g id="레이어_3" data-name="레이어 3"><path class="cls-1" d="M2,53.37l25.84-.51,12.74-.19c4.23-.06,8.46-.15,12.68-.16l-.85.86L52.3,19.73l1,1-25.63-.1-12.82-.07L2,20.39l.65-.66c-.08,5.54-.13,11.06-.29,16.67Zm0,0L1.67,36.7c-.15-5.6-.21-11.29-.29-17v-.64H2l12.81-.17,12.82-.07,25.63-.1h1v1l-.14,33.64v.86H53.3c-4.32,0-8.64-.1-12.95-.15l-12.89-.19Z"/><path class="cls-1" d="M2,29.74c4.27-.42,8.54-.63,12.81-.78s8.55-.2,12.82-.22,8.54.06,12.82.22,8.54.36,12.81.78c-4.27.41-8.54.63-12.81.78s-8.55.2-12.82.22-8.54-.07-12.82-.23S6.31,30.15,2,29.74Z"/><path class="cls-1" d="M14.12,19.73a17.67,17.67,0,0,1-2,3.07A30.3,30.3,0,0,1,9.7,25.45,29,29,0,0,1,7,27.8a17.73,17.73,0,0,1-3.11,1.94,17.15,17.15,0,0,1,2-3.07A28.8,28.8,0,0,1,8.3,24,30.43,30.43,0,0,1,11,21.67,18.5,18.5,0,0,1,14.12,19.73Z"/><path class="cls-1" d="M24.38,19.73a18.31,18.31,0,0,1-2,3.07A30.3,30.3,0,0,1,20,25.45a28.89,28.89,0,0,1-2.71,2.35,18.19,18.19,0,0,1-3.12,1.94,17.71,17.71,0,0,1,2-3.07,29.86,29.86,0,0,1,5.13-5A17.73,17.73,0,0,1,24.38,19.73Z"/><path class="cls-1" d="M32.8,19.73a18.31,18.31,0,0,1-2,3.07,30.3,30.3,0,0,1-2.41,2.65,30.22,30.22,0,0,1-2.71,2.35,18.19,18.19,0,0,1-3.12,1.94,17.15,17.15,0,0,1,2-3.07,29.86,29.86,0,0,1,5.13-5A17.73,17.73,0,0,1,32.8,19.73Z"/><path class="cls-1" d="M41.32,19.73a18.31,18.31,0,0,1-2,3.07,30.3,30.3,0,0,1-2.41,2.65,28.89,28.89,0,0,1-2.71,2.35,18.19,18.19,0,0,1-3.12,1.94,17.71,17.71,0,0,1,2-3.07,29.86,29.86,0,0,1,5.13-5A17.73,17.73,0,0,1,41.32,19.73Z"/><path class="cls-1" d="M52,19.73a18.31,18.31,0,0,1-2,3.07,30.3,30.3,0,0,1-2.41,2.65,28.89,28.89,0,0,1-2.71,2.35,18.19,18.19,0,0,1-3.12,1.94,17.71,17.71,0,0,1,2-3.07,29.86,29.86,0,0,1,5.13-5A17.73,17.73,0,0,1,52,19.73Z"/><path class="cls-1" d="M1.88,18.67l25.51-4.5,12.54-2.11c4.17-.67,8.33-1.36,12.5-2l-.82,1.1L50.09,1.29l1.14.84Q38.56,4,25.86,5.8C17.39,7,8.93,8.11.44,9.1l.28-.38Zm0,0L.06,8.82,0,8.51l.34-.07C8.75,6.89,17.18,5.51,25.61,4.11s16.88-2.67,25.32-4l1-.15.15,1,1.46,9.9.14.95-1,.15c-4.28.64-8.57,1.22-12.85,1.82l-12.8,1.72-12.69,1.6Z"/><path class="cls-1" d="M12.34,7A17.45,17.45,0,0,1,10.8,10.3a29.84,29.84,0,0,1-2,3A28.59,28.59,0,0,1,6.48,16a17.42,17.42,0,0,1-2.79,2.38,17.74,17.74,0,0,1,1.54-3.33,28.61,28.61,0,0,1,2-3A30.12,30.12,0,0,1,9.55,9.36,17.92,17.92,0,0,1,12.34,7Z"/><path class="cls-1" d="M22.48,5.45a17.36,17.36,0,0,1-1.54,3.32,28.74,28.74,0,0,1-2,3,30,30,0,0,1-2.33,2.73,17.37,17.37,0,0,1-2.79,2.37,17.36,17.36,0,0,1,1.54-3.32,29.64,29.64,0,0,1,4.32-5.71A17.87,17.87,0,0,1,22.48,5.45Z"/><path class="cls-1" d="M30.8,4.19a17.42,17.42,0,0,1-1.53,3.33,31.67,31.67,0,0,1-2,3,28.7,28.7,0,0,1-2.34,2.72,17.34,17.34,0,0,1-2.78,2.38,17.71,17.71,0,0,1,1.53-3.33,28.61,28.61,0,0,1,2-3A30.13,30.13,0,0,1,28,6.57,18.34,18.34,0,0,1,30.8,4.19Z"/><path class="cls-1" d="M39.23,2.92a17.45,17.45,0,0,1-1.54,3.33,29.84,29.84,0,0,1-2,3A28.59,28.59,0,0,1,33.37,12a17.42,17.42,0,0,1-2.79,2.38A17.74,17.74,0,0,1,32.12,11a28.61,28.61,0,0,1,2-3,30.12,30.12,0,0,1,2.33-2.72A17.92,17.92,0,0,1,39.23,2.92Z"/><path class="cls-1" d="M49.78,1.33a17.45,17.45,0,0,1-1.54,3.33,28.74,28.74,0,0,1-2,3,28.59,28.59,0,0,1-2.33,2.72,17.42,17.42,0,0,1-2.79,2.38,17.74,17.74,0,0,1,1.54-3.33,28.61,28.61,0,0,1,2-3A30.12,30.12,0,0,1,47,3.72,17.92,17.92,0,0,1,49.78,1.33Z"/><path class="cls-1" d="M10.46,37.32c2.84-.41,5.69-.63,8.54-.77s5.7-.21,8.54-.23,5.7.06,8.55.22,5.69.37,8.54.78c-2.85.42-5.69.64-8.54.78s-5.7.2-8.55.22-5.69-.06-8.54-.22S13.3,37.74,10.46,37.32Z"/><path class="cls-1" d="M10.46,44.91c2.84-.42,5.69-.63,8.54-.78s5.7-.2,8.54-.22,5.7.06,8.55.22,5.69.36,8.54.78c-2.85.41-5.69.63-8.54.78s-5.7.2-8.55.22-5.69-.07-8.54-.22S13.3,45.32,10.46,44.91Z"/></g></g></svg>