<svg xmlns="http://www.w3.org/2000/svg" viewBox="0 0 48.83 54.77"><defs><style>.cls-1{fill:#d9d6c7;}</style></defs><g id="레이어_2" data-name="레이어 2"><g id="레이어_3" data-name="레이어 3"><path class="cls-1" d="M29.84,24.55c3.06-4.73,6.2-9.39,9.31-14.09l.14-.22.32,0a3.54,3.54,0,0,0,2.62-.77A6.13,6.13,0,0,0,44,7.17a7.66,7.66,0,0,0,.79-2.86A3.78,3.78,0,0,0,44,1.72a2.28,2.28,0,0,0-.21-.22s-.07-.06-.15-.08a1.66,1.66,0,0,0-.54-.08,4.17,4.17,0,0,0-1.34.28A6,6,0,0,0,39.4,3.2a5.68,5.68,0,0,0-.8,1.18c-.25.46-.49.93-.69,1.39a6.09,6.09,0,0,0-.46,1.34,3,3,0,0,0,0,1.27l.08.38-.25.31L23.94,25.64l-.55.68-.74-.52a8.65,8.65,0,0,0-4.3-1.69,2.16,2.16,0,0,0-1.67.64,5.63,5.63,0,0,0-1.11,1.91c-.28.75-.47,1.6-.78,2.48a7.26,7.26,0,0,1-1.46,2.65,6.64,6.64,0,0,1-2.57,1.67c-1,.34-1.73.5-2.55.79a13.63,13.63,0,0,0-4.35,2.26,5.14,5.14,0,0,0-2,3.85,8.87,8.87,0,0,0,1.33,4.52c.4.72.91,1.41,1.37,2.11l1.62,2-.09-.08a27.52,27.52,0,0,0,4.64,3,12.09,12.09,0,0,0,5.16,1.43,5.29,5.29,0,0,0,4.39-2.29,7.43,7.43,0,0,0,1.89-4.89c0-.92-.1-1.88,0-2.92a4.7,4.7,0,0,1,1.29-2.84,24,24,0,0,1,2.26-1.9,25.43,25.43,0,0,0,2.16-1.83,7.16,7.16,0,0,0,1.63-2.22,4,4,0,0,0,.16-2.68,2.54,2.54,0,0,0-.21-.66l-.27-.66c-.24-.41-.44-.84-.71-1.23s-.54-.79-.84-1.16L26.67,27l1,1c.33.35.61.75.92,1.12s.53.8.81,1.2A7.38,7.38,0,0,1,30,31.68a4.34,4.34,0,0,1,0,3,7.65,7.65,0,0,1-1.63,2.47,28.37,28.37,0,0,1-2.13,2A23.89,23.89,0,0,0,24.1,41a3.83,3.83,0,0,0-1,2.34c-.07.87.07,1.83.08,2.83a8,8,0,0,1-.48,3,9.75,9.75,0,0,1-1.51,2.65A6.78,6.78,0,0,1,19,54a7,7,0,0,1-3.07.82A13.31,13.31,0,0,1,10,53.35a24.47,24.47,0,0,1-5-3.14l0,0,0-.05L3.13,48c-.51-.76-1.06-1.49-1.52-2.29A10.77,10.77,0,0,1,0,40.29l0-.76a4.7,4.7,0,0,1,.18-.74c.07-.25.13-.5.21-.74l.35-.68a7.8,7.8,0,0,1,1.88-2.29,15.62,15.62,0,0,1,4.93-2.64c.83-.31,1.81-.55,2.48-.8a4.54,4.54,0,0,0,1.8-1.17c1-1,1.18-2.72,1.85-4.51a7.45,7.45,0,0,1,1.57-2.59,4.11,4.11,0,0,1,3.09-1.19,7.83,7.83,0,0,1,2.91.7,13.88,13.88,0,0,1,2.48,1.41l-1.29.16L36,8l-.17.69a4.82,4.82,0,0,1,0-1.93,8.74,8.74,0,0,1,.62-1.68c.25-.51.52-1,.79-1.46a6.79,6.79,0,0,1,1-1.44,7.43,7.43,0,0,1,3-1.89A5.27,5.27,0,0,1,43.11,0a2.92,2.92,0,0,1,1,.21,1.64,1.64,0,0,1,.53.34A3.6,3.6,0,0,1,45,.91a5,5,0,0,1,1,3.47,8.59,8.59,0,0,1-1,3.27,7.23,7.23,0,0,1-2.14,2.69,4.39,4.39,0,0,1-3.44.8l.46-.18C36.53,15.49,33.22,20.05,29.84,24.55Z"/><path class="cls-1" d="M23.21,33.75a4.16,4.16,0,0,1-3.62,4.11,4.06,4.06,0,0,1-3.16-1A4.15,4.15,0,0,1,15,33.75a4.21,4.21,0,0,1,1.44-3.17,4.1,4.1,0,0,1,3.17-.95A4.18,4.18,0,0,1,23.21,33.75Zm0,0a3.18,3.18,0,0,0-1.16-2.46,3.12,3.12,0,0,0-2.46-.66,3.17,3.17,0,0,0,0,6.24,3.12,3.12,0,0,0,2.46-.66A3.2,3.2,0,0,0,23.21,33.75Z"/><path class="cls-1" d="M39.51,38.61A1.83,1.83,0,0,1,38.7,40a4.09,4.09,0,0,1-1.6.76,3.41,3.41,0,0,1-2-.12,2.43,2.43,0,0,1-1-.69,2.13,2.13,0,0,1-.5-1.32,2.1,2.1,0,0,1,.5-1.32,2.4,2.4,0,0,1,1-.68,3.25,3.25,0,0,1,2-.12,3.94,3.94,0,0,1,1.6.75A1.86,1.86,0,0,1,39.51,38.61Zm0,0a1.29,1.29,0,0,0-.94-1.13,2.46,2.46,0,0,0-1.47,0,2.64,2.64,0,0,0-1.11.63c-.28.25-.31.47-.3.49a.7.7,0,0,0,.29.5,2.74,2.74,0,0,0,1.12.63,2.46,2.46,0,0,0,1.47,0A1.29,1.29,0,0,0,39.51,38.61Z"/><path class="cls-1" d="M47.78,38.61A1.82,1.82,0,0,1,47,40a4.09,4.09,0,0,1-1.6.76,3.41,3.41,0,0,1-2-.12,2.43,2.43,0,0,1-1-.69,2.08,2.08,0,0,1-.5-1.32,2,2,0,0,1,.5-1.32,2.34,2.34,0,0,1,1-.68,3.25,3.25,0,0,1,2-.12,3.94,3.94,0,0,1,1.6.75A1.85,1.85,0,0,1,47.78,38.61Zm0,0a1.28,1.28,0,0,0-.93-1.13,2.46,2.46,0,0,0-1.47,0,2.74,2.74,0,0,0-1.12.63.73.73,0,0,0-.29.49.7.7,0,0,0,.29.5,2.74,2.74,0,0,0,1.12.63,2.46,2.46,0,0,0,1.47,0A1.28,1.28,0,0,0,47.78,38.61Z"/><path class="cls-1" d="M39.21,37.85a32.76,32.76,0,0,1-.13-3.7c0-1.22.06-2.44.16-3.65l.06-.74.83-.05a67.32,67.32,0,0,1,7.65,0l1,.07-.18.92c-.21,1.12-.45,2.23-.73,3.34a32.94,32.94,0,0,1-1,3.3,28.5,28.5,0,0,1-.13-3.45c0-1.14,0-2.28.14-3.41l.86,1a67.32,67.32,0,0,1-7.65,0l.89-.79c-.2,1.2-.46,2.4-.75,3.59A32.57,32.57,0,0,1,39.21,37.85Z"/></g></g></svg>