<svg xmlns="http://www.w3.org/2000/svg" viewBox="0 0 52.14 53.08"><defs><style>.cls-1{fill:#d9d6c7;}</style></defs><g id="레이어_2" data-name="레이어 2"><g id="레이어_3" data-name="레이어 3"><path class="cls-1" d="M33,10.19a11.92,11.92,0,0,0,1.2-.15,4.34,4.34,0,0,0,1.13-.4,4.11,4.11,0,0,0,1-.69,3.37,3.37,0,0,0,.6-1,3.46,3.46,0,0,0,0-2.27,4,4,0,0,0-1.36-1.82,5,5,0,0,0-4.35-.72c-1.42.5-2,2.1-2.11,3.62a18.67,18.67,0,0,0,.35,4.7,39.45,39.45,0,0,0,1.15,4.65c.93,3.07,2.16,6,3.35,9.08a11.13,11.13,0,0,1,.67,2.49,24.11,24.11,0,0,1,.15,2.51v.61l0,.68a8.21,8.21,0,0,1-.23,1.33,12.17,12.17,0,0,1-1,2.41,17.5,17.5,0,0,1-3.07,4.06,14.48,14.48,0,0,1-4.18,3,7.57,7.57,0,0,1-1.32.44l-.75.09-.49,0a2.89,2.89,0,0,0-1.62.84,1.62,1.62,0,0,0-.5,1.4,1.77,1.77,0,0,0,1.09,1.08,6.89,6.89,0,0,0,1,.32c.42.12.85.21,1.26.37A11.67,11.67,0,0,1,27.31,48a13,13,0,0,1,3.85,3.56l1,1.46H30.35l-11.62,0L7.1,53H5.26l1-1.46A13,13,0,0,1,10.14,48a11.67,11.67,0,0,1,2.37-1.12,11.33,11.33,0,0,1,1.26-.37,5.79,5.79,0,0,0,1-.33,1.74,1.74,0,0,0,1.09-1.07,1.62,1.62,0,0,0-.5-1.4,2.82,2.82,0,0,0-1.62-.83l-.49-.05-.75-.1a6.82,6.82,0,0,1-1.32-.44,14.3,14.3,0,0,1-4.18-3A17.23,17.23,0,0,1,3.9,35.23a11.6,11.6,0,0,1-1-2.41,7.25,7.25,0,0,1-.23-1.33l0-.68V30.2a24.17,24.17,0,0,1,.16-2.51,11.13,11.13,0,0,1,.67-2.49c1.19-3.05,2.42-6,3.35-9.08a27.69,27.69,0,0,0,1.5-9.35c-.11-1.52-.69-3.12-2.11-3.62a5,5,0,0,0-4.35.72A3.89,3.89,0,0,0,.52,5.69,3.37,3.37,0,0,0,.52,8a3.29,3.29,0,0,0,.6,1,4.11,4.11,0,0,0,1,.69,4.47,4.47,0,0,0,1.13.4,11.92,11.92,0,0,0,1.2.15c-.4,0-.81,0-1.21-.08A4.67,4.67,0,0,1,2,9.75a4.12,4.12,0,0,1-1-.66,3.66,3.66,0,0,1-.7-1A3.64,3.64,0,0,1,.16,5.57,4.37,4.37,0,0,1,1.58,3.5a5.5,5.5,0,0,1,4.85-1,3.52,3.52,0,0,1,2,1.7,6.62,6.62,0,0,1,.75,2.46,26.94,26.94,0,0,1-1.25,9.76c-.87,3.16-2.06,6.22-3.15,9.23a9.39,9.39,0,0,0-.53,2.2,19.91,19.91,0,0,0-.09,2.34v.6l.06.53a5.84,5.84,0,0,0,.21,1.06,10.26,10.26,0,0,0,.89,2.05,17.06,17.06,0,0,0,2.84,3.62,12.73,12.73,0,0,0,3.67,2.61,5.65,5.65,0,0,0,1,.33l.45.05.72.07a4.6,4.6,0,0,1,2.63,1.34,3.41,3.41,0,0,1,1,3,3.52,3.52,0,0,1-2.09,2.35,7.43,7.43,0,0,1-1.32.46,10.1,10.1,0,0,0-1.07.32,9.47,9.47,0,0,0-2,1,11.16,11.16,0,0,0-3.22,3l-.8-1.47,11.63,0,11.62,0-.8,1.47a11.16,11.16,0,0,0-3.22-3,9.47,9.47,0,0,0-2-1,10.1,10.1,0,0,0-1.07-.32,7.43,7.43,0,0,1-1.32-.46,3.52,3.52,0,0,1-2.09-2.35,3.43,3.43,0,0,1,1-3,4.63,4.63,0,0,1,2.63-1.34l.72-.07.45-.05a4.92,4.92,0,0,0,1-.33,12.47,12.47,0,0,0,3.67-2.61,17.06,17.06,0,0,0,2.84-3.62A10.31,10.31,0,0,0,33,32.4a6.62,6.62,0,0,0,.21-1.06l.05-.53v-.6a22.34,22.34,0,0,0-.09-2.34,10,10,0,0,0-.54-2.2c-1.09-3-2.28-6.07-3.15-9.23a26.93,26.93,0,0,1-1.24-9.76A6.43,6.43,0,0,1,29,4.22a3.5,3.5,0,0,1,2-1.69,5.46,5.46,0,0,1,4.85,1,4.37,4.37,0,0,1,1.42,2.07,3.64,3.64,0,0,1-.12,2.48,3.66,3.66,0,0,1-.7,1,4.07,4.07,0,0,1-1,.66,4.88,4.88,0,0,1-1.18.36C33.85,10.17,33.44,10.16,33,10.19Z"/><path class="cls-1" d="M8.8,8.87a31.74,31.74,0,0,1,5-.78c1.66-.15,3.31-.22,5-.22s3.31.07,5,.22a30.6,30.6,0,0,1,5,.78,33,33,0,0,1-5,.78c-1.66.14-3.31.22-5,.22s-3.3-.08-5-.22A33,33,0,0,1,8.8,8.87Z"/><path class="cls-1" d="M7.1,38.21a42.64,42.64,0,0,1,5.81-.78c1.94-.15,3.88-.23,5.82-.22s3.87.07,5.81.22a41.13,41.13,0,0,1,5.81.78,44.27,44.27,0,0,1-5.81.78c-1.94.14-3.88.22-5.81.22s-3.88-.08-5.82-.23A42.62,42.62,0,0,1,7.1,38.21Z"/><path class="cls-1" d="M13.54,2.63c.41,3,.63,5.93.77,8.89s.21,5.93.23,8.9-.06,5.93-.22,8.89-.37,5.93-.78,8.9c-.42-3-.64-5.93-.78-8.9s-.21-5.93-.22-8.89.06-5.93.22-8.9S13.12,5.59,13.54,2.63Z"/><path class="cls-1" d="M24.16,2.63c.42,3,.63,5.93.78,8.89s.2,5.93.22,8.9-.06,5.93-.22,8.89-.36,5.93-.78,8.9c-.41-3-.63-5.93-.78-8.9s-.2-5.93-.21-8.89.06-5.93.22-8.9S23.75,5.59,24.16,2.63Z"/><path class="cls-1" d="M18.85,0c.41,3.18.63,6.37.78,9.55s.2,6.37.22,9.55-.06,6.37-.22,9.55-.36,6.37-.78,9.56c-.42-3.19-.63-6.37-.78-9.56s-.2-6.36-.22-9.55.06-6.36.22-9.55S18.44,3.18,18.85,0Z"/><path class="cls-1" d="M42.81,18.63A1.82,1.82,0,0,1,42,20a4.16,4.16,0,0,1-1.6.76,3.33,3.33,0,0,1-2-.13,2.25,2.25,0,0,1-1-.68,2,2,0,0,1-.5-1.32,2.09,2.09,0,0,1,.49-1.32,2.36,2.36,0,0,1,1-.68,3.24,3.24,0,0,1,2-.12,4,4,0,0,1,1.6.75A1.85,1.85,0,0,1,42.81,18.63Zm0,0a1.28,1.28,0,0,0-.94-1.13,2.42,2.42,0,0,0-1.46,0,2.74,2.74,0,0,0-1.12.63c-.28.25-.3.47-.29.49a.7.7,0,0,0,.29.5,2.74,2.74,0,0,0,1.12.63,2.45,2.45,0,0,0,1.47,0A1.28,1.28,0,0,0,42.81,18.63Z"/><path class="cls-1" d="M51.09,18.63a1.82,1.82,0,0,1-.8,1.37,4.14,4.14,0,0,1-1.61.76,3.3,3.3,0,0,1-2-.13,2.34,2.34,0,0,1-1-.68,2.07,2.07,0,0,1-.49-1.32,2.09,2.09,0,0,1,.49-1.32,2.4,2.4,0,0,1,.95-.68,3.25,3.25,0,0,1,2-.12,4,4,0,0,1,1.61.75A1.85,1.85,0,0,1,51.09,18.63Zm0,0a1.29,1.29,0,0,0-.94-1.13,2.46,2.46,0,0,0-1.47,0,2.77,2.77,0,0,0-1.11.63c-.28.25-.3.47-.29.49s0,.25.29.5a2.77,2.77,0,0,0,1.11.63,2.46,2.46,0,0,0,1.47,0A1.29,1.29,0,0,0,51.09,18.63Z"/><path class="cls-1" d="M42.52,17.87a32.78,32.78,0,0,1-.14-3.7c0-1.22.07-2.44.17-3.65l.06-.74.83,0a67.32,67.32,0,0,1,7.65,0l1,.07-.18.92c-.21,1.12-.45,2.23-.74,3.34a30.52,30.52,0,0,1-1,3.3,30.7,30.7,0,0,1-.13-3.45c0-1.14.06-2.28.14-3.41l.87,1a67.32,67.32,0,0,1-7.65,0l.89-.79c-.21,1.2-.46,2.4-.76,3.59A30.43,30.43,0,0,1,42.52,17.87Z"/></g></g></svg>