<svg xmlns="http://www.w3.org/2000/svg" viewBox="0 0 62.99 59.25"><defs><style>.cls-1{fill:#d9d6c7;}</style></defs><g id="레이어_2" data-name="레이어 2"><g id="레이어_3" data-name="레이어 3"><path class="cls-1" d="M28,46.33c-2.44,2-4.93,3.87-7.39,5.8s-5,3.8-7.47,5.71L11.61,59l.61-1.91c1.13-3.5,2.25-7,3.42-10.48l3.51-10.44.3,1c-3-2.24-6-4.52-9-6.81s-5.92-4.63-8.88-6.95L0,22.2l2,0,10.79.23c3.6.07,7.2.12,10.8.12l-.3.22c1.26-3.55,2.42-7.13,3.63-10.69S29.25,5,30.42,1.4L30.88,0l.51,1.4,3.78,10.52L38.9,22.46l-.83-.6,21.67-.17,3.25,0-2.63,1.92-9,6.56-9,6.49.37-1.14,3.53,10.8,3.51,10.81.7,2.14L48.66,57.9,39.51,51c-3-2.34-6.07-4.66-9.08-7l.11-.16c3.19,2.12,6.34,4.3,9.51,6.45l9.44,6.54-1.08.8-3.83-10.7-3.8-10.71-.24-.69.61-.45,9-6.59,9-6.53.61,1.9-21.67-.17h-.64L37.24,23,33.8,12.39,30.42,1.73h1C30.11,5.27,28.8,8.8,27.57,12.35S25.05,19.44,23.86,23l-.07.21h-.22q-5.4,0-10.8.13L2,23.57l.4-1.19c3,2.2,6.1,4.39,9.12,6.63s6,4.49,9,6.78l.51.39-.21.6L17.16,47.17c-1.23,3.47-2.49,6.92-3.75,10.37l-1-.71c2.57-1.79,5.11-3.61,7.7-5.38s5.16-3.55,7.78-5.28Z"/></g></g></svg>