<svg xmlns="http://www.w3.org/2000/svg" viewBox="0 0 56.03 67.78"><defs><style>.cls-1{fill:#d9d6c7;}</style></defs><g id="레이어_2" data-name="레이어 2"><g id="레이어_3" data-name="레이어 3"><path class="cls-1" d="M11.48,0a18.87,18.87,0,0,0-6,3.19A2.87,2.87,0,0,0,4.28,5.7a3.06,3.06,0,0,0,.21.65c.12.25.23.51.36.74a6.17,6.17,0,0,0,.88,1.28C7,9.87,9.3,10,11.55,10l3.5-.1a17.09,17.09,0,0,1,3.66.51,15.84,15.84,0,0,1,3.46,1.33,8.08,8.08,0,0,1,3,2.54,4.92,4.92,0,0,1,.77,2,5,5,0,0,1-.24,2.11,8.35,8.35,0,0,1-2.14,3.17,24.87,24.87,0,0,1-5.87,4.06,54.24,54.24,0,0,1-6.44,2.76c2-1.18,4-2.33,5.94-3.61a27.42,27.42,0,0,0,5.23-4.28A7.25,7.25,0,0,0,24,17.82a2.87,2.87,0,0,0,.11-1.32,3,3,0,0,0-.53-1.2,6.41,6.41,0,0,0-2.32-1.87,13.64,13.64,0,0,0-3-1.12,14.87,14.87,0,0,0-3.22-.5c-.49,0-1.1,0-1.69,0s-1.17,0-1.77,0a17.27,17.27,0,0,1-3.66-.39A5.92,5.92,0,0,1,4.54,9.37a7.18,7.18,0,0,1-1-1.65c-.14-.28-.23-.57-.35-.86a4,4,0,0,1-.23-1,3.25,3.25,0,0,1,.53-2A5.23,5.23,0,0,1,4.85,2.43,12.22,12.22,0,0,1,8.07.84,20,20,0,0,1,11.48,0Z"/><path class="cls-1" d="M5.64,37.18A8,8,0,0,1,8,40.94a22.59,22.59,0,0,1,1,4.37,76,76,0,0,1,.31,8.9,46.09,46.09,0,0,0,.65,8.63,7.67,7.67,0,0,0,.62,1.86,1.78,1.78,0,0,0,1.05,1c.92.28,2-.51,2.89-1.47a21.75,21.75,0,0,0,3.94-7.4,37.2,37.2,0,0,0,1.86-8.41,51.17,51.17,0,0,0,.13-8.67,36.16,36.16,0,0,0-.53-4.29,17.84,17.84,0,0,0-.5-2.07,9.74,9.74,0,0,0-.74-1.86l-.37-.66.61-.32a10,10,0,0,0,2.95-2.59,14.32,14.32,0,0,0,2-3.52,17.57,17.57,0,0,0,1-4C25,19.68,25,19,25,18.28V16.17l.23,2.11c0,.71,0,1.42,0,2.13a18.1,18.1,0,0,1-.72,4.24,13.8,13.8,0,0,1-1.9,3.92,11.12,11.12,0,0,1-3.21,3.12l.24-1a9.46,9.46,0,0,1,1,2.18,22,22,0,0,1,.64,2.2,34.09,34.09,0,0,1,.72,4.47,50.19,50.19,0,0,1,.08,9,39,39,0,0,1-1.88,8.85,23.34,23.34,0,0,1-4.42,8.07,7.12,7.12,0,0,1-.89.84l-.5.4-.58.33a4.75,4.75,0,0,1-1.33.46,3.92,3.92,0,0,1-1.48-.09,3.62,3.62,0,0,1-2.15-1.9,9.41,9.41,0,0,1-.73-2.34,44,44,0,0,1-.33-9c.11-3,.4-5.9.27-8.8a23.15,23.15,0,0,0-.59-4.32A8.41,8.41,0,0,0,5.64,37.18Z"/><path class="cls-1" d="M19.15,31.09A56.61,56.61,0,0,0,14.56,23a11.78,11.78,0,0,0-3-3.07,4,4,0,0,0-1.76-.63,4.92,4.92,0,0,0-1.91.27,9.44,9.44,0,0,0-3.53,2.25,11.71,11.71,0,0,0-2.51,3.51,7.22,7.22,0,0,0-.36,1,4.68,4.68,0,0,0-.12,1,9,9,0,0,0,.38,2.16,15.55,15.55,0,0,0,1.88,4.22A12,12,0,0,1,.81,29.8a9.34,9.34,0,0,1-.76-2.38,5.61,5.61,0,0,1,.32-2.63A12,12,0,0,1,3,20.51a10.93,10.93,0,0,1,4.27-2.82A6.84,6.84,0,0,1,10,17.38a5.32,5.32,0,0,1,1.36.34L12,18a4.28,4.28,0,0,1,.57.37,12,12,0,0,1,3.29,3.79A29,29,0,0,1,19.15,31.09Z"/><path class="cls-1" d="M9.91,18.32a20.79,20.79,0,0,0,0,4.46,39.74,39.74,0,0,0,.6,4.36A53.1,53.1,0,0,0,13,35.58c1,2.77,2.31,5.42,3.57,8.1q1,2,2.06,4c.73,1.31,1.46,2.61,2.13,4-1-1.11-2-2.28-3-3.45S16,45.72,15.21,44.45a46.85,46.85,0,0,1-4.08-8.17A34.86,34.86,0,0,1,9,27.37c-.05-.77-.12-1.53-.14-2.3s0-1.53.09-2.3A14.39,14.39,0,0,1,9.91,18.32Z"/><path class="cls-1" d="M36.57,2.75a12.91,12.91,0,0,0-5.48,3.92,5.57,5.57,0,0,0-1.15,2.92,5.16,5.16,0,0,0,.53,2.92A3.37,3.37,0,0,0,32.76,14,10.61,10.61,0,0,0,36,14a29.47,29.47,0,0,0,3.31-.59l.83-.19c.31-.07.62-.15.93-.2a13.15,13.15,0,0,1,1.88-.18,10,10,0,0,1,3.8.63,5.22,5.22,0,0,1,1.78,1.18,3.52,3.52,0,0,1,1,2.06,6.31,6.31,0,0,1-1,3.88,16.13,16.13,0,0,1-2.18,2.94,50.57,50.57,0,0,1-11.07,8.66,86.11,86.11,0,0,0,9.88-9.67A18.59,18.59,0,0,0,47,19.76,4.61,4.61,0,0,0,47.61,17,2.29,2.29,0,0,0,46,15.29a8,8,0,0,0-3-.45,12,12,0,0,0-1.59.13c-.27,0-.52.1-.78.15l-.87.2a28.07,28.07,0,0,1-3.56.56,12.65,12.65,0,0,1-3.76-.22,4.88,4.88,0,0,1-3.26-2.4,6.35,6.35,0,0,1-.46-3.86,6.64,6.64,0,0,1,1.68-3.35A12,12,0,0,1,36.57,2.75Z"/><path class="cls-1" d="M34.61,41.26a7.87,7.87,0,0,1,3,3.2,22.79,22.79,0,0,1,1.82,4.07,32.57,32.57,0,0,1,1.17,4.3l.51,2.1c.24.67.43,1.36.71,2a19,19,0,0,0,2,3.73,16.36,16.36,0,0,0,2.83,3,10.45,10.45,0,0,0,3.53,1.93c.31.09.63.14.95.21a5.7,5.7,0,0,0,.92,0l.44,0,.41-.11a1.09,1.09,0,0,0,.59-.29A2.15,2.15,0,0,0,54,64.08a9.5,9.5,0,0,0,0-2,35.36,35.36,0,0,0-.73-4.21l-1.93-8.59c-.62-2.92-1-5.78-1.82-8.55a38.14,38.14,0,0,0-1.37-4.07,18.73,18.73,0,0,0-.91-1.92,9.55,9.55,0,0,0-1.09-1.66l-.45-.51.42-.45a11.35,11.35,0,0,0,2.06-3.46,17.88,17.88,0,0,0,1-4,20.59,20.59,0,0,0,.07-4.23c0-.71-.19-1.41-.27-2.12l-.43-2.11.66,2.06c.17.7.36,1.4.47,2.11A21.85,21.85,0,0,1,50,24.7a16.73,16.73,0,0,1-.78,4.35,12.52,12.52,0,0,1-2.12,4l0-1A10.54,10.54,0,0,1,48.52,34c.39.66.74,1.33,1.06,2a33.43,33.43,0,0,1,1.6,4.21c.9,2.85,1.42,5.81,2,8.62l2,8.58A39.51,39.51,0,0,1,56,61.92a12.15,12.15,0,0,1,0,2.41,4.07,4.07,0,0,1-1.2,2.56,3,3,0,0,1-1.34.69c-.22.06-.44.12-.66.16l-.66,0a7.6,7.6,0,0,1-1.27-.08c-.4-.09-.81-.18-1.2-.3A12,12,0,0,1,45.54,65a17,17,0,0,1-3-3.5,20.27,20.27,0,0,1-2-4.12c-.26-.71-.42-1.45-.62-2.18L39.52,53c-.24-1.43-.47-2.87-.84-4.27a22.08,22.08,0,0,0-1.44-4.09A8.32,8.32,0,0,0,34.61,41.26Z"/><path class="cls-1" d="M46.62,32.59A50.45,50.45,0,0,0,40,25.12,8.54,8.54,0,0,0,36.11,23a4.91,4.91,0,0,0-3.85,1.4A13.94,13.94,0,0,0,29.2,27.9a12.65,12.65,0,0,0-1.84,4.29c0,.19-.07.38-.09.56v.52a3,3,0,0,0,.24,1,8,8,0,0,0,1.21,2,17,17,0,0,0,3.69,3.31A13.22,13.22,0,0,1,28,37a8.89,8.89,0,0,1-1.67-2.11,3.93,3.93,0,0,1-.49-1.41l-.06-.73c0-.24,0-.47,0-.71a13,13,0,0,1,1.76-5.07A15.36,15.36,0,0,1,31,22.8a8.81,8.81,0,0,1,2.44-1.43A7.49,7.49,0,0,1,34.9,21a4.9,4.9,0,0,1,1.53.08A9.45,9.45,0,0,1,41.09,24,28.55,28.55,0,0,1,46.62,32.59Z"/><path class="cls-1" d="M30.69,24.4a59.9,59.9,0,0,0,4.92,6.94c.88,1.1,1.77,2.2,2.69,3.27.46.53.91,1.08,1.36,1.62l1.4,1.59C42.9,40,44.83,42.06,46.7,44.2c1,1,1.89,2.12,2.84,3.19s1.89,2.15,2.78,3.29C51.13,49.87,50,49,48.86,48.1s-2.2-1.85-3.27-2.81-2.08-2-3.11-3-2-2.08-2.92-3.17a57.57,57.57,0,0,1-5.22-6.9A26.46,26.46,0,0,1,30.69,24.4Z"/></g></g></svg>