<svg xmlns="http://www.w3.org/2000/svg" viewBox="0 0 56.52 58.12"><defs><style>.cls-1{fill:#d9d6c7;}</style></defs><g id="레이어_2" data-name="레이어 2"><g id="레이어_3" data-name="레이어 3"><path class="cls-1" d="M0,25.11c3.42-.41,6.84-.63,10.25-.78s6.84-.2,10.26-.22,6.83.06,10.25.22,6.83.36,10.25.78c-3.42.42-6.83.63-10.25.78s-6.84.2-10.25.22-6.84-.06-10.26-.22S3.42,25.52,0,25.11Z"/><path class="cls-1" d="M9,25.11a72.27,72.27,0,0,1,1,8,78.56,78.56,0,0,1,.23,8.12,67.47,67.47,0,0,1-.65,8.13,55.56,55.56,0,0,1-1.74,8L7,56.2c4.46-.07,8.92-.05,13.38-.08s8.92,0,13.38.07l-.87,1.23a69.07,69.07,0,0,1-2-8,72,72,0,0,1-1.08-8.14,53.44,53.44,0,0,1,.07-8.2,35.34,35.34,0,0,1,1.7-8,41.86,41.86,0,0,0-1,8,67.48,67.48,0,0,0,.46,8c.36,2.66.81,5.31,1.41,7.93a80,80,0,0,0,2.15,7.72L35.05,58H33.76c-4.46.06-8.92.05-13.38.08S11.46,58.11,7,58L5.75,58l.38-1.18A68,68,0,0,0,9,41.2q.29-4,.3-8C9.32,30.48,9.21,27.8,9,25.11Z"/><path class="cls-1" d="M9.65,32.36a22,22,0,0,1,4.11-.77,37.74,37.74,0,0,1,4.11-.23,40.42,40.42,0,0,1,4.11.22,22.88,22.88,0,0,1,4.11.78,21.26,21.26,0,0,1-4.11.78,35.37,35.37,0,0,1-4.11.22,37.73,37.73,0,0,1-4.11-.22A22,22,0,0,1,9.65,32.36Z"/><path class="cls-1" d="M24.17,8.19A8.45,8.45,0,0,0,25,10.8a6.12,6.12,0,0,0,1.58,2,2.25,2.25,0,0,0,1.9.5,5.05,5.05,0,0,0,2-1l-.34.63A6.43,6.43,0,0,0,30,10.73,3.13,3.13,0,0,0,28.91,9a5,5,0,0,0-2.13-.78c-.41,0-.85-.05-1.27-.08S24.68,8.16,24.17,8.19Zm0,0c.35-.16.76-.37,1.24-.55s.89-.24,1.35-.34a5.26,5.26,0,0,1,2.94.42,4.37,4.37,0,0,1,2.06,2.4,6.7,6.7,0,0,1,.4,3l0,.39-.31.24a5.94,5.94,0,0,1-3.06,1.39,3.85,3.85,0,0,1-3.26-1.26,6.24,6.24,0,0,1-1.42-2.76A6,6,0,0,1,24.17,8.19Z"/><path class="cls-1" d="M31.17,13a44,44,0,0,1-1.71,6.12L28.52,22c-.29,1-.56,2-.84,3.07a6.74,6.74,0,0,1-.71-3.3,11.44,11.44,0,0,1,.59-3.3,13.38,13.38,0,0,1,1.42-3A10,10,0,0,1,31.17,13Z"/><path class="cls-1" d="M24.17,8.19c-.36,1.39-.65,2.79-.9,4.2s-.47,2.82-.62,4.23a54.68,54.68,0,0,0-.33,8.48l.28,7-1.89-6.84c-.64-2.35-1.2-4.71-1.72-7.1a35.85,35.85,0,0,1-.91-7.4c0-1.24.14-2.46.07-3.52a2.54,2.54,0,0,0-.34-1.22,1.26,1.26,0,0,0-.89-.45A7.24,7.24,0,0,0,13.85,6a2.17,2.17,0,0,0-1,.75,1.12,1.12,0,0,0-.18.5,1.74,1.74,0,0,0,0,.52l.05.18c.63,5.69,1.19,11.39,1.52,17.12C13,19.5,12,13.87,11.11,8.22l0,.18A3.21,3.21,0,0,1,11,7.13a3.06,3.06,0,0,1,.38-1.21A4,4,0,0,1,13.12,4.4a8.76,8.76,0,0,1,2-.57,7.77,7.77,0,0,1,2.07-.11,3.22,3.22,0,0,1,2.21,1.2,4.25,4.25,0,0,1,.73,2.2c.1,1.35,0,2.56,0,3.73a33.9,33.9,0,0,0,.79,7c.41,2.36.91,4.73,1.43,7.07l-1.61.21c0-1.46.1-2.91.26-4.36s.39-2.88.68-4.3A41.45,41.45,0,0,1,24.17,8.19Z"/><path class="cls-1" d="M44.76,16.61a26.29,26.29,0,0,0,1.12-2.46c.32-.79.61-1.51.94-2.23l.12-.24.31,0c1.69.19,3.37.43,5,.65l-.68,1.05L48.73,9.5l-.34-.45.35-.52,2.34-3.47,1,1.47c-1.61.36-3.22.69-4.83,1l-.56.13-.4-.46c-1.1-1.3-2.16-2.62-3.24-3.93l1.73-.62c0,1.69,0,3.39-.07,5.08l0,.6-.51.22Q41.58,9.72,39,10.78l-.21-1.41c2,.37,4.09.78,6.13,1.21l.4.08,0,.35c-.07.87-.16,1.73-.28,2.65S44.8,15.59,44.76,16.61Zm0,0c0-.85-.07-1.71-.15-2.66S44.45,12,44.41,11l.37.44c-2.07-.18-4.14-.37-6.21-.6l-2.42-.28,2.22-1.13q2.49-1.26,5-2.48l-.52.82c0-1.69-.07-3.39-.07-5.08V0l1.73,2.06c1.09,1.3,2.2,2.59,3.26,3.92l-1-.34c1.62-.32,3.23-.66,4.85-1L54,4.25l-1.41,1.9L50.12,9.51v-1l2.61,4.1.91,1.43-1.59-.38c-1.65-.39-3.31-.77-5-1.19l.43-.21c-.48.79-1,1.57-1.48,2.27S45.14,15.93,44.76,16.61Z"/><path class="cls-1" d="M47.18,12.11a45.2,45.2,0,0,1,3,5.24Q51.6,20,52.77,22.81c.78,1.84,1.49,3.72,2.13,5.62a47.66,47.66,0,0,1,1.62,5.85A44.69,44.69,0,0,1,53.46,29c-.91-1.79-1.76-3.61-2.53-5.46S49.44,19.86,48.8,18A45.34,45.34,0,0,1,47.18,12.11Z"/></g></g></svg>