<svg xmlns="http://www.w3.org/2000/svg" viewBox="0 0 79.17 50.72"><defs><style>.cls-1{fill:#d9d6c7;}</style></defs><g id="레이어_2" data-name="레이어 2"><g id="레이어_3" data-name="레이어 3"><path class="cls-1" d="M41.34,37.08A20.77,20.77,0,0,1,42.83,32a35.43,35.43,0,0,1,2.47-4.73A46.89,46.89,0,0,1,52,19a58.16,58.16,0,0,1,8.21-6.74c1.45-1,3-1.88,4.5-2.8s3.13-1.62,4.73-2.34c-1.37,1.11-2.79,2.13-4.2,3.16l-4.1,3.23c-1.3,1.16-2.72,2.16-4,3.37l-1.93,1.72L53.4,20.38a69.77,69.77,0,0,0-6.82,7.75c-1,1.4-2,2.8-2.87,4.3A30.35,30.35,0,0,0,41.34,37.08Z"/><path class="cls-1" d="M46.05,27.52a14.65,14.65,0,0,1-.38-12.06,16,16,0,0,1,3.59-5.15,24,24,0,0,1,5-3.75A46,46,0,0,1,65.9,2.17,90.46,90.46,0,0,1,78.09.11l1-.11,0,1a21.29,21.29,0,0,1-.24,4,25.81,25.81,0,0,1-.86,3.8,25,25,0,0,1-1.41,3.63,27.46,27.46,0,0,1-1.9,3.39l-.28.45h-.53l-9.76,0,.44-1.74,6,3.31.83.45-.49.73a8.52,8.52,0,0,1-3.23,2.85,10.5,10.5,0,0,1-4,1.13,14.2,14.2,0,0,1-4.07-.33c-.66-.16-1.3-.36-1.94-.55l-1.87-.74.71-.86,2.65,4.07.15.23-.11.2a1.41,1.41,0,0,1-.38.47,3.27,3.27,0,0,1-.39.29,4.64,4.64,0,0,1-.79.42,11.34,11.34,0,0,1-1.64.56,25.54,25.54,0,0,1-3.33.59c-1.11.12-2.23.21-3.34.24S47.13,27.52,46.05,27.52Zm0,0c1.14-.09,2.21-.17,3.33-.31s2.2-.26,3.29-.46a24.46,24.46,0,0,0,3.2-.77,10.82,10.82,0,0,0,1.49-.61A5.93,5.93,0,0,0,58,25a3.23,3.23,0,0,0,.27-.23,1.08,1.08,0,0,0,.14-.17l0,.44-2.85-3.93L54.55,19.6l1.77.61,1.8.61c.61.15,1.22.31,1.83.44a13.33,13.33,0,0,0,3.67.17A8.86,8.86,0,0,0,67,20.36a7.46,7.46,0,0,0,2.52-2.29l.33,1.18-6.11-3.19-3.3-1.72,3.73,0,9.76-.05-.82.44a26.94,26.94,0,0,0,1.74-3.16,26,26,0,0,0,1.29-3.37A23.82,23.82,0,0,0,77,4.67a19.45,19.45,0,0,0,.25-3.52L78.28,2a102.34,102.34,0,0,0-12,1.85A47.14,47.14,0,0,0,55,7.81a19,19,0,0,0-8.53,8A14.66,14.66,0,0,0,46.05,27.52Z"/><path class="cls-1" d="M30.09,47.75l-.21-11L29.62,25.9c-.18-7.18-.3-14.25-.38-21.32l.52.78a41.88,41.88,0,0,0-7-1.91,45.19,45.19,0,0,0-7.25-.71,34.82,34.82,0,0,0-7.21.6A31.76,31.76,0,0,0,1.41,5.49L2,4.58,1.92,26.5q-.06,11-.22,21.92L.62,47.84a28.72,28.72,0,0,1,7.2-2.94,28.52,28.52,0,0,1,7.63-1,27.39,27.39,0,0,1,7.6,1,25.25,25.25,0,0,1,3.62,1.22,14.66,14.66,0,0,1,1.7.8Zm0,0L28.37,47a15.07,15.07,0,0,0-1.79-.7,29.21,29.21,0,0,0-3.63-1,26.84,26.84,0,0,0-7.47-.6A30.46,30.46,0,0,0,8.13,46a28.93,28.93,0,0,0-6.75,3l-1.06.66,0-1.25Q.15,37.46.08,26.5L0,4.58V3.91l.59-.24A33.14,33.14,0,0,1,7.93,1.42a36.7,36.7,0,0,1,7.61-.6,43.65,43.65,0,0,1,7.56.85,42,42,0,0,1,7.32,2.12L31,4v.58c-.07,7.31-.2,14.64-.37,21.85L30.3,37.17Z"/><path class="cls-1" d="M4.33,50.59a53.18,53.18,0,0,1,6.36-1.48c2.13-.4,4.27-.68,6.41-.93s4.3-.41,6.47-.49a54.61,54.61,0,0,1,6.52.06,52.63,52.63,0,0,1-6.35,1.49c-2.13.39-4.27.67-6.42.92s-4.3.41-6.46.49A54.8,54.8,0,0,1,4.33,50.59Z"/><path class="cls-1" d="M59.33,48.42a31,31,0,0,0-7-2.68,30.16,30.16,0,0,0-7.43-.9h-.93l-.93.06c-.62.06-1.24.07-1.85.16a32.12,32.12,0,0,0-3.64.73A25.75,25.75,0,0,0,34,46.94c-1.16.42-2.23,1.06-3.35,1.57l-1.23.55,0-1.31c-.1-7.19-.13-14.39-.15-21.58s.06-14.4.15-21.59V4l.5-.19a36.34,36.34,0,0,1,7.39-1.9,38.22,38.22,0,0,1,7.55-.41,35.21,35.21,0,0,1,7.45,1.05,35.51,35.51,0,0,1,7,2.5,43,43,0,0,0-7.16-1.91c-1.21-.25-2.44-.33-3.66-.47-.62,0-1.23,0-1.84-.07s-1.23,0-1.84,0a39.63,39.63,0,0,0-7.29.75,34.91,34.91,0,0,0-7,2l.51-.77q.15,10.79.15,21.59T31.1,47.75L29.84,47a31.92,31.92,0,0,1,7.33-2.63,27,27,0,0,1,7.71-.63,28.86,28.86,0,0,1,7.56,1.41A27.25,27.25,0,0,1,59.33,48.42Z"/><path class="cls-1" d="M56,50.59a54.76,54.76,0,0,1-6.53.06c-2.16-.08-4.31-.27-6.46-.49s-4.28-.53-6.41-.92a52.78,52.78,0,0,1-6.36-1.49,54.76,54.76,0,0,1,6.53-.06c2.16.08,4.31.27,6.46.49s4.29.53,6.41.93A52.3,52.3,0,0,1,56,50.59Z"/><path class="cls-1" d="M59.33,43a35.7,35.7,0,0,1-.77-5.29c-.15-1.77-.23-3.54-.23-5.3s.08-3.53.22-5.3a37.24,37.24,0,0,1,.78-5.3,34.58,34.58,0,0,1,.78,5.3c.15,1.77.23,3.53.22,5.3s-.07,3.53-.22,5.3A35.73,35.73,0,0,1,59.33,43Z"/><path class="cls-1" d="M6.83,12a25.22,25.22,0,0,1,4.4-.77,43.23,43.23,0,0,1,4.4-.23c1.46,0,2.93.08,4.4.22a25.93,25.93,0,0,1,4.39.78,24.09,24.09,0,0,1-4.39.78,40.64,40.64,0,0,1-4.4.22,40.51,40.51,0,0,1-4.4-.22A25.25,25.25,0,0,1,6.83,12Z"/><path class="cls-1" d="M6.83,16.66a25.22,25.22,0,0,1,4.4-.77,43.23,43.23,0,0,1,4.4-.23c1.46,0,2.93.08,4.4.22a25.93,25.93,0,0,1,4.39.78,24.09,24.09,0,0,1-4.39.78,40.64,40.64,0,0,1-4.4.22,43.21,43.21,0,0,1-4.4-.22A25.25,25.25,0,0,1,6.83,16.66Z"/><path class="cls-1" d="M6.83,21.33a26.22,26.22,0,0,1,4.4-.78c1.47-.14,2.93-.22,4.4-.22s2.93.08,4.4.22a25,25,0,0,1,4.39.78,25,25,0,0,1-4.39.78,40.64,40.64,0,0,1-4.4.22c-1.47,0-2.93-.08-4.4-.22A26.22,26.22,0,0,1,6.83,21.33Z"/><path class="cls-1" d="M6.83,26a25.25,25.25,0,0,1,4.4-.78,43.21,43.21,0,0,1,4.4-.22,40.64,40.64,0,0,1,4.4.22,24.09,24.09,0,0,1,4.39.78,25.93,25.93,0,0,1-4.39.78c-1.47.14-2.94.22-4.4.22s-2.93-.08-4.4-.22A26.22,26.22,0,0,1,6.83,26Z"/></g></g></svg>