<svg xmlns="http://www.w3.org/2000/svg" viewBox="0 0 62.96 53.38"><defs><style>.cls-1{fill:#d9d6c7;}</style></defs><g id="레이어_2" data-name="레이어 2"><g id="레이어_3" data-name="레이어 3"><path class="cls-1" d="M11.57.45c1,0,2,0,3-.07h.07V.45a5.24,5.24,0,0,0,.87,2.61A5.47,5.47,0,0,0,17.6,4.72c.82.4,1.7.68,2.62,1a8.79,8.79,0,0,1,1.41.7A3.17,3.17,0,0,1,22.93,8a3.45,3.45,0,0,1,0,2,8.66,8.66,0,0,1-.62,1.51,24.48,24.48,0,0,1-1.55,2.56l-1.61,2.36-.77,1.18a4.57,4.57,0,0,0-.47,1.06,8,8,0,0,0,.46,5,30,30,0,0,0,2.43,5l.72,1.22c.24.4.49.8.75,1.31a8.74,8.74,0,0,1,.85,3.1,10.91,10.91,0,0,1-.18,3.13,12.5,12.5,0,0,1-1,3l-.26.56H1.43l-.25-.56a13,13,0,0,1-1-3A10.91,10.91,0,0,1,0,34.22a8.76,8.76,0,0,1,.86-3.1c.25-.51.5-.91.74-1.31l.73-1.22a31.68,31.68,0,0,0,2.43-5,8.11,8.11,0,0,0,.46-5,4.6,4.6,0,0,0-.48-1.06L4,16.41,2.4,14.05A26.28,26.28,0,0,1,.86,11.49,9.51,9.51,0,0,1,.23,10a3.43,3.43,0,0,1,0-2A3.16,3.16,0,0,1,1.52,6.48a9.6,9.6,0,0,1,1.41-.69c.92-.38,1.81-.66,2.62-1.06A5.42,5.42,0,0,0,7.64,3.06,5.13,5.13,0,0,0,8.5.45V.38h.06C9.57.44,10.57.43,11.57.45Zm0,0c-1,0-2,0-3,.07L8.64.45a6.25,6.25,0,0,1-.58,2.86,6.48,6.48,0,0,1-2,2.29c-.8.61-1.67,1.09-2.45,1.58a10.8,10.8,0,0,0-1.06.74,1.3,1.3,0,0,0-.46.67,3.21,3.21,0,0,0,.08.86,5.79,5.79,0,0,0,.44,1.14,24.36,24.36,0,0,0,1.42,2.34L5.68,15.3l.79,1.22a6.5,6.5,0,0,1,.7,1.54,7.81,7.81,0,0,1,.25,3.24,14.53,14.53,0,0,1-.74,3A33.87,33.87,0,0,1,4.1,29.6l-.74,1.24c-.26.41-.5.83-.67,1.17A7,7,0,0,0,2,34.4a10.52,10.52,0,0,0,.93,5l-.89-.55h19l-.89.55a10.52,10.52,0,0,0,.93-5A6.74,6.74,0,0,0,20.46,32c-.17-.34-.42-.76-.67-1.17l-.74-1.24a33.91,33.91,0,0,1-2.59-5.31,14.52,14.52,0,0,1-.73-3A8,8,0,0,1,16,18.06a6.93,6.93,0,0,1,.7-1.54l.8-1.22,1.61-2.37a22.48,22.48,0,0,0,1.42-2.34,6,6,0,0,0,.44-1.14A2.78,2.78,0,0,0,21,8.59a1.23,1.23,0,0,0-.45-.65,10.34,10.34,0,0,0-1.06-.75A28.91,28.91,0,0,1,17,5.61a6.52,6.52,0,0,1-2-2.3A6.34,6.34,0,0,1,14.5.45l.07.07C13.57.46,12.57.47,11.57.45Z"/><path class="cls-1" d="M11.57,42.71a10.41,10.41,0,0,1,.79,2.67,17.16,17.16,0,0,1,.21,2.67,16,16,0,0,1-.21,2.66,10.41,10.41,0,0,1-.79,2.67,10,10,0,0,1-.78-2.67,16.25,16.25,0,0,1,0-5.33A10.79,10.79,0,0,1,11.57,42.71Z"/><path class="cls-1" d="M26.91,5.37A15.48,15.48,0,0,1,31.56,1.1,8,8,0,0,1,34.71,0,6.57,6.57,0,0,1,38.1.65a5.43,5.43,0,0,1,1.51,1,6.63,6.63,0,0,1,1.08,1.41c.55,1,1,1.83,1.54,2.66a26.18,26.18,0,0,0,3.87,4.57,41.81,41.81,0,0,0,4.6,3.94,18.44,18.44,0,0,0,5.19,2.84,7.18,7.18,0,0,0,2.77.34,3.52,3.52,0,0,0,2.41-1.1,5.26,5.26,0,0,0,1.3-2.55,9.39,9.39,0,0,0,.25-1.5c0-.52,0-1,.05-1.56.08.51.19,1,.25,1.56a10.55,10.55,0,0,1,0,1.59A5.84,5.84,0,0,1,61.81,17a4.64,4.64,0,0,1-3,1.76,8.17,8.17,0,0,1-3.38-.14,18.06,18.06,0,0,1-5.87-2.79,40.87,40.87,0,0,1-4.91-4.06,26.64,26.64,0,0,1-4.07-5c-.56-.93-1-1.93-1.46-2.8A4.14,4.14,0,0,0,37.4,2a5.29,5.29,0,0,0-2.61-.7A7,7,0,0,0,32,2,18.76,18.76,0,0,0,26.91,5.37Z"/><path class="cls-1" d="M26.91,27.88c1.2-2.52,2.56-4.92,4-7.29s2.92-4.69,4.44-7,3.14-4.54,4.81-6.74S43.53,2.5,45.41.45a82.52,82.52,0,0,1-4,7.29c-1.41,2.38-2.92,4.69-4.45,7s-3.14,4.54-4.81,6.74S28.79,25.83,26.91,27.88Z"/></g></g></svg>