<svg xmlns="http://www.w3.org/2000/svg" viewBox="0 0 31.23 54.3"><defs><style>.cls-1{fill:#d9d6c7;}</style></defs><g id="레이어_2" data-name="레이어 2"><g id="레이어_3" data-name="레이어 3"><path class="cls-1" d="M15.26,35.67a9.39,9.39,0,0,1-8.78-6.06,9.49,9.49,0,0,1-.62-2.8c-.06-.95-.07-1.88-.11-2.83l-.18-5.64-.19-5.65c0-.95-.07-1.85-.07-2.85a9.19,9.19,0,0,1,.49-3A10,10,0,0,1,9.41,1.9,10.65,10.65,0,0,1,12.18.49,11.07,11.07,0,0,1,15.26,0a11,11,0,0,1,3.07.49A10.71,10.71,0,0,1,21.11,1.9a9.92,9.92,0,0,1,3.61,4.92,8.89,8.89,0,0,1,.49,3c0,1-.05,1.9-.07,2.85L25,18.34,24.76,24c0,.95,0,1.88-.11,2.83a9.17,9.17,0,0,1-.61,2.8A9.4,9.4,0,0,1,15.26,35.67Zm0,0A10,10,0,0,0,18,35.23,9.82,9.82,0,0,0,20.53,34a8.92,8.92,0,0,0,3.24-4.44c.65-1.77.39-3.65.36-5.54l-.19-5.64-.18-5.65c0-.93-.05-1.91-.11-2.79a8.18,8.18,0,0,0-.56-2.5A8.41,8.41,0,0,0,6.86,9.9c-.06.88-.07,1.86-.11,2.79l-.19,5.65L6.38,24c0,1.89-.29,3.77.36,5.54A9,9,0,0,0,10,34a9.82,9.82,0,0,0,2.5,1.27A10,10,0,0,0,15.26,35.67Z"/><path class="cls-1" d="M.82,16.42A43.69,43.69,0,0,0,1,24.75a26.59,26.59,0,0,0,2,7.9A15.63,15.63,0,0,0,5,36,11.31,11.31,0,0,0,7.9,38.57a13.26,13.26,0,0,0,1.72.88,14.32,14.32,0,0,0,1.86.57,16.46,16.46,0,0,0,3.92.4,14.09,14.09,0,0,0,7.48-2,13.67,13.67,0,0,0,5.05-5.9,27.32,27.32,0,0,0,2.27-7.82,44.35,44.35,0,0,0,.5-8.32,36.43,36.43,0,0,1,.48,8.42,25.66,25.66,0,0,1-1.83,8.36,14.8,14.8,0,0,1-5.45,6.86,15.85,15.85,0,0,1-8.49,2.36A18.22,18.22,0,0,1,11,41.91a12.72,12.72,0,0,1-4.13-1.74,13.27,13.27,0,0,1-3.28-3.06,15.61,15.61,0,0,1-2.09-3.87A25,25,0,0,1,0,24.81,36.81,36.81,0,0,1,.82,16.42Z"/><path class="cls-1" d="M15.26,41.43A14.26,14.26,0,0,1,16,44.55a23.53,23.53,0,0,1,.22,3.13A21.82,21.82,0,0,1,16,50.8a13.66,13.66,0,0,1-.78,3.13,13.69,13.69,0,0,1-.79-3.13,21.81,21.81,0,0,1-.21-3.12,23.51,23.51,0,0,1,.21-3.13A13.74,13.74,0,0,1,15.26,41.43Z"/><path class="cls-1" d="M7.32,53.3a23.61,23.61,0,0,1,4.28-.77,40.91,40.91,0,0,1,4.28-.23c1.43,0,2.86.08,4.28.22a24.82,24.82,0,0,1,4.29.78,23.93,23.93,0,0,1-4.29.79,40.75,40.75,0,0,1-4.28.21,38.34,38.34,0,0,1-4.28-.22A23.64,23.64,0,0,1,7.32,53.3Z"/><path class="cls-1" d="M11.82,11.17a4.1,4.1,0,0,1-1.44.78A4.82,4.82,0,0,1,7.5,12a3.76,3.76,0,0,1-1.43-.78,3.94,3.94,0,0,1,1.43-.79,5,5,0,0,1,2.88,0A4,4,0,0,1,11.82,11.17Z"/><path class="cls-1" d="M11.82,16.42a3.94,3.94,0,0,1-1.44.78,4.8,4.8,0,0,1-1.44.22,5.12,5.12,0,0,1-1.44-.21,3.94,3.94,0,0,1-1.43-.79,3.94,3.94,0,0,1,1.43-.79,5.12,5.12,0,0,1,1.44-.21,4.8,4.8,0,0,1,1.44.22A3.94,3.94,0,0,1,11.82,16.42Z"/><path class="cls-1" d="M11.82,20.71a4,4,0,0,1-1.44.79,5.12,5.12,0,0,1-1.44.21A4.78,4.78,0,0,1,7.5,21.5a3.94,3.94,0,0,1-1.43-.79,3.76,3.76,0,0,1,1.43-.78,4.82,4.82,0,0,1,2.88,0A4.1,4.1,0,0,1,11.82,20.71Z"/><path class="cls-1" d="M11.82,25a4.1,4.1,0,0,1-1.44.78A5.14,5.14,0,0,1,8.94,26a4.8,4.8,0,0,1-1.44-.22A4.06,4.06,0,0,1,6.07,25a3.94,3.94,0,0,1,1.43-.79A4.49,4.49,0,0,1,8.94,24a5.12,5.12,0,0,1,1.44.21A4,4,0,0,1,11.82,25Z"/><path class="cls-1" d="M23.7,11.17a4.1,4.1,0,0,1-1.44.78,4.82,4.82,0,0,1-2.88,0,3.8,3.8,0,0,1-1.44-.78,4,4,0,0,1,1.44-.79,5,5,0,0,1,2.88,0A4,4,0,0,1,23.7,11.17Z"/><path class="cls-1" d="M23.7,16.42a3.94,3.94,0,0,1-1.44.78,4.8,4.8,0,0,1-1.44.22,5.12,5.12,0,0,1-1.44-.21,4,4,0,0,1-1.44-.79,4,4,0,0,1,1.44-.79,5.12,5.12,0,0,1,1.44-.21,4.8,4.8,0,0,1,1.44.22A3.94,3.94,0,0,1,23.7,16.42Z"/><path class="cls-1" d="M23.7,20.71a4,4,0,0,1-1.44.79,5.12,5.12,0,0,1-1.44.21,4.78,4.78,0,0,1-1.44-.21,4,4,0,0,1-1.44-.79,3.8,3.8,0,0,1,1.44-.78,4.82,4.82,0,0,1,2.88,0A4.1,4.1,0,0,1,23.7,20.71Z"/><path class="cls-1" d="M23.7,25a4.1,4.1,0,0,1-1.44.78,5.14,5.14,0,0,1-1.44.22,4.8,4.8,0,0,1-1.44-.22A4.1,4.1,0,0,1,17.94,25a4,4,0,0,1,1.44-.79A4.49,4.49,0,0,1,20.82,24a5.12,5.12,0,0,1,1.44.21A4,4,0,0,1,23.7,25Z"/></g></g></svg>