<svg xmlns="http://www.w3.org/2000/svg" viewBox="0 0 48.48 53.01"><defs><style>.cls-1{fill:#d9d6c7;}</style></defs><g id="레이어_2" data-name="레이어 2"><g id="레이어_3" data-name="레이어 3"><path class="cls-1" d="M14.84,8.88a28.51,28.51,0,0,1,4.72-.78c1.57-.15,3.14-.22,4.72-.22A46.73,46.73,0,0,1,29,8.1a27.83,27.83,0,0,1,4.72.78A30,30,0,0,1,29,9.66c-1.58.14-3.15.22-4.72.22s-3.15-.08-4.72-.23A28.49,28.49,0,0,1,14.84,8.88Z"/><path class="cls-1" d="M10.59,14.25a59.42,59.42,0,0,1,6.87-.77c2.29-.16,4.59-.21,6.88-.23s4.58.06,6.88.22a61.73,61.73,0,0,1,6.87.78,57.33,57.33,0,0,1-6.87.78c-2.3.16-4.59.21-6.88.22s-4.59-.06-6.88-.22A59.45,59.45,0,0,1,10.59,14.25Z"/><path class="cls-1" d="M20,18.34c.42,2.89.63,5.78.78,8.67s.2,5.78.22,8.67-.06,5.77-.22,8.66S20.38,50.12,20,53c-.41-2.89-.63-5.78-.78-8.67S19,38.57,19,35.68,19,29.9,19.19,27,19.55,21.23,20,18.34Z"/><path class="cls-1" d="M28.72,18.34c.41,2.89.63,5.78.77,8.67s.2,5.78.22,8.67-.06,5.77-.21,8.66-.37,5.78-.78,8.67c-.42-2.89-.64-5.78-.79-8.67s-.2-5.77-.21-8.66.06-5.78.22-8.67S28.3,21.23,28.72,18.34Z"/><path class="cls-1" d="M12.46,18.34c.26,2.91.32,5.81.31,8.71s-.11,5.79-.25,8.68-.37,5.78-.69,8.66-.67,5.76-1.24,8.62c-.26-2.91-.33-5.81-.32-8.71s.12-5.79.26-8.68.37-5.77.69-8.66S11.89,21.2,12.46,18.34Z"/><path class="cls-1" d="M36,18.34c.59,2.86,1,5.74,1.3,8.62s.56,5.77.76,8.65.29,5.79.31,8.69,0,5.8-.25,8.71c-.59-2.86-1-5.74-1.31-8.62s-.55-5.76-.75-8.65-.29-5.79-.31-8.69S35.73,21.25,36,18.34Z"/><path class="cls-1" d="M42.4,7a1.27,1.27,0,0,0-.57-1.29,2.79,2.79,0,0,0-1.42-.37A2.4,2.4,0,0,0,39,5.61a2.27,2.27,0,0,0-.8,1.1,3.36,3.36,0,0,0,.37,2.7,3.16,3.16,0,0,0,2.23,1.41c1.8.21,4.06-.12,5.18-1.42A4.23,4.23,0,0,0,47,7a9.28,9.28,0,0,0-.15-2.8,2.42,2.42,0,0,0-1.45-1.75,7.31,7.31,0,0,0-2.68-.51c-2,0-4.09,0-6.13,0L24.2,2V0h.08V2L11.94,2c-2,0-4.16-.07-6.13-.05a7.52,7.52,0,0,0-2.68.51A2.42,2.42,0,0,0,1.68,4.16,9.28,9.28,0,0,0,1.53,7,4.23,4.23,0,0,0,2.47,9.4C3.59,10.69,5.85,11,7.65,10.82A3.2,3.2,0,0,0,9.88,9.41a3.36,3.36,0,0,0,.37-2.7,2.27,2.27,0,0,0-.8-1.1,2.4,2.4,0,0,0-1.38-.27,2.79,2.79,0,0,0-1.42.37A1.27,1.27,0,0,0,6.08,7a1.36,1.36,0,0,1,.48-1.42A3.09,3.09,0,0,1,8.05,5a2.8,2.8,0,0,1,1.62.21,2.78,2.78,0,0,1,1.07,1.28,3.9,3.9,0,0,1-.21,3.25,4,4,0,0,1-2.68,2,9,9,0,0,1-3.28,0,5.44,5.44,0,0,1-3.06-1.5A5.42,5.42,0,0,1,.1,7.14,10.73,10.73,0,0,1,.16,3.8,4.22,4.22,0,0,1,.92,2.09,4.31,4.31,0,0,1,2.4.9,9,9,0,0,1,5.72.15C7.87.08,9.86.09,11.94.05L24.28,0V2H24.2V0L36.54.06c2.08,0,4.07,0,6.22.09A9,9,0,0,1,46.08.9a4.39,4.39,0,0,1,1.47,1.19,4.11,4.11,0,0,1,.77,1.71,11,11,0,0,1,.06,3.34A5.49,5.49,0,0,1,47,10.29a5.5,5.5,0,0,1-3.06,1.5,9,9,0,0,1-3.28,0,4,4,0,0,1-2.68-2,4,4,0,0,1-.21-3.25,2.74,2.74,0,0,1,1.08-1.28A2.76,2.76,0,0,1,40.43,5a3.09,3.09,0,0,1,1.49.54A1.36,1.36,0,0,1,42.4,7Z"/></g></g></svg>