<svg xmlns="http://www.w3.org/2000/svg" viewBox="0 0 57.35 54.66"><defs><style>.cls-1{fill:#d9d6c7;}</style></defs><g id="레이어_2" data-name="레이어 2"><g id="레이어_3" data-name="레이어 3"><path class="cls-1" d="M20.67,53.76l8-.53c2.56-.17,5-.28,7.53-.35l-.88.88c0-1.47-.09-2.94-.09-4.41l0-4.42,1,1c-2.59,0-5.17,0-7.76-.09s-5.16-.15-7.75-.27l.64-.64C21.17,47.72,20.89,50.59,20.67,53.76Zm0,0c-.21-2.71-.5-5.73-.64-8.83l0-.61.66,0c2.59-.12,5.17-.22,7.75-.27s5.17-.06,7.76-.09h1v1l0,4.42c0,1.47-.06,2.94-.08,4.41l0,.9-.86,0c-2.69-.06-5.38-.17-8-.34S23.07,54,20.67,53.76Z"/><path class="cls-1" d="M33.76,44.93a7.56,7.56,0,0,1,1.59-5,7.83,7.83,0,0,1,2-1.81,9.45,9.45,0,0,1,1.22-.64c.42-.18.86-.32,1.29-.48l-.35.45q-.21-6.09-.32-12.17l.36.66a18.37,18.37,0,0,1-3.71-3.3,20.21,20.21,0,0,1-2.78-4.07,18.81,18.81,0,0,1-1.73-4.64A22.51,22.51,0,0,1,30.77,9l1,1H25.09l1-1a22.51,22.51,0,0,1-.6,4.91,18.66,18.66,0,0,1-1.73,4.64A20.21,20.21,0,0,1,21,22.62a18.37,18.37,0,0,1-3.71,3.3l.36-.66q-.11,6.07-.32,12.17L17,37c.43.16.87.29,1.29.47a11,11,0,0,1,1.22.65,7.83,7.83,0,0,1,2,1.81,7.56,7.56,0,0,1,1.59,5,7.86,7.86,0,0,0-.6-2.54,7.13,7.13,0,0,0-1.38-2.15,6.93,6.93,0,0,0-2-1.52,8.45,8.45,0,0,0-1.16-.5c-.4-.14-.81-.23-1.22-.35l-.33-.09v-.35q-.21-6.09-.33-12.17v-.4l.37-.27a18.81,18.81,0,0,0,3.23-3.09,19,19,0,0,0,2.45-3.79,18.94,18.94,0,0,0,1.5-4.24A20.22,20.22,0,0,0,24.1,9l0-1h1c2.22,0,4.45,0,6.67,0h1l0,1a20.84,20.84,0,0,0,.51,4.47,18.29,18.29,0,0,0,1.5,4.24A18.32,18.32,0,0,0,37.2,21.5a18.17,18.17,0,0,0,3.23,3.1l.37.27v.39q-.1,6.07-.32,12.17v.35l-.34.09c-.4.12-.81.21-1.21.34a7.55,7.55,0,0,0-1.16.51,7,7,0,0,0-2,1.52,7.3,7.3,0,0,0-1.37,2.15A7.61,7.61,0,0,0,33.76,44.93Z"/><path class="cls-1" d="M28.42,9a31.31,31.31,0,0,1,.78,4.94c.15,1.65.23,3.29.22,4.94s-.07,3.29-.22,4.94a30.2,30.2,0,0,1-.78,4.94,32.51,32.51,0,0,1-.78-4.94c-.14-1.65-.22-3.29-.22-4.94s.08-3.29.23-4.94A31.28,31.28,0,0,1,28.42,9Z"/><path class="cls-1" d="M0,2.42C4.78,2,9.56,1.79,14.34,1.64s9.56-.2,14.33-.22,9.56.06,14.34.22,9.56.36,14.34.78c-4.78.41-9.56.63-14.34.78s-9.56.2-14.34.22-9.55-.07-14.33-.23S4.78,2.83,0,2.42Z"/><path class="cls-1" d="M28.42,0a2.81,2.81,0,0,1,.79,1.06,2.91,2.91,0,0,1,.21,1.07,2.54,2.54,0,0,1-.21,1.06,2.81,2.81,0,0,1-.79,1.06,2.89,2.89,0,0,1-.78-1.06,2.72,2.72,0,0,1-.22-1.06,2.93,2.93,0,0,1,.22-1.07A2.89,2.89,0,0,1,28.42,0Z"/><path class="cls-1" d="M2.42,18.88a40.14,40.14,0,0,1,4.76-6.5,40.51,40.51,0,0,1,6-5.52,31.06,31.06,0,0,1,7.14-4.07A23.71,23.71,0,0,1,28.41,1.1,21.34,21.34,0,0,1,36.6,2.57a26.91,26.91,0,0,1,7.14,4.1A44.14,44.14,0,0,1,54.26,18.88,59.52,59.52,0,0,0,42.82,7.93,27.61,27.61,0,0,0,36,4.35a19.82,19.82,0,0,0-7.5-1.25c-5.12.07-10.07,2.13-14.41,5a47.53,47.53,0,0,0-6.16,4.93A57.9,57.9,0,0,0,2.42,18.88Z"/></g></g></svg>