<svg xmlns="http://www.w3.org/2000/svg" viewBox="0 0 48.49 54.36"><defs><style>.cls-1{fill:#d9d6c7;}</style></defs><g id="레이어_2" data-name="레이어 2"><g id="레이어_3" data-name="레이어 3"><path class="cls-1" d="M38.44,13.25c-.3,2.11-.49,4.2-.64,6.3a29.52,29.52,0,0,1-.38,3.12c-.14,1-.25,2.08-.36,3.12-.21,2.08-.37,4.17-.46,6.27s-.15,4.19-.16,6.28l-.18-.48a4.68,4.68,0,0,0,1.22.91,3,3,0,0,0,1.42.35,2.87,2.87,0,0,0,1.41-.36,5.93,5.93,0,0,0,.66-.41c.21-.17.4-.36.61-.54l-.22.52c0-4.25-.08-8.52-.45-12.75-.09-1.06-.2-2.11-.34-3.16s-.38-2.08-.43-3.14a25.17,25.17,0,0,0-.5-3.11A8.28,8.28,0,0,0,38.44,13.25Zm0,0a7.47,7.47,0,0,1,1.86,2.69A24.21,24.21,0,0,1,41.44,19a16,16,0,0,1,.61,3.2c.15,1.08.26,2.15.36,3.22.37,4.31.5,8.6.45,12.92v.32l-.22.19c-.25.23-.5.46-.76.67a7.41,7.41,0,0,1-.89.56,4.49,4.49,0,0,1-2.09.52,4.56,4.56,0,0,1-2.1-.51,6.2,6.2,0,0,1-1.68-1.28l-.18-.2v-.29c0-2.12.05-4.24.16-6.36s.26-4.23.46-6.34c.12-1.06.23-2.12.37-3.17a18.77,18.77,0,0,1,.55-3.14A47.85,47.85,0,0,1,38.44,13.25Z"/><path class="cls-1" d="M34.94,0a4.5,4.5,0,0,1,1.88,1.18,3.69,3.69,0,0,1,1,2.24,5.4,5.4,0,0,1-.72,2.32,6.81,6.81,0,0,0-.67,1.74,6,6,0,0,0,.32,3.64c.49,1.09,1.46,1.74,2.31,1.17a4.26,4.26,0,0,0,2-2.83,5.27,5.27,0,0,0-.59-3.54,10.71,10.71,0,0,0-2.5-3c-.47-.5-.89-1-1.44-1.52-.31-.28-.61-.58-.85-.83A3,3,0,0,0,34.94,0Zm0,0A5,5,0,0,0,36,.52L37,.79c.6.27,1.26.67,1.91,1a12.47,12.47,0,0,1,2.85,3.42,6.82,6.82,0,0,1,.73,4.56,5.76,5.76,0,0,1-2.72,3.83,6.65,6.65,0,0,1-.61.27,4.63,4.63,0,0,1-.73.12A2.79,2.79,0,0,1,37,13.65a4.06,4.06,0,0,1-1.67-1.9A7.41,7.41,0,0,1,35,7.16,8.44,8.44,0,0,1,35.77,5a3.78,3.78,0,0,0,.52-1.64A3.56,3.56,0,0,0,34.94,0Z"/><path class="cls-1" d="M36.17,27.16a5.09,5.09,0,0,0,1-.24,2.45,2.45,0,0,0,.55.23,3.78,3.78,0,0,0,1.22.13A5.68,5.68,0,0,0,40.19,27c.21-.07.42-.16.63-.24.3.11.61.21,1,.37a4.67,4.67,0,0,1-.37,1l-.77.29a7,7,0,0,1-1.65.32,5.15,5.15,0,0,1-1.74-.19,4.62,4.62,0,0,1-.84-.34A2.22,2.22,0,0,1,36.17,27.16Z"/><path class="cls-1" d="M33.19,46.35A43.92,43.92,0,0,0,22.7,51.81l-1.2.82-.7.45c-.24.13-.49.26-.74.37a10.82,10.82,0,0,1-3.1.8,16.65,16.65,0,0,1-6.21-.54A16.24,16.24,0,0,1,5.15,51a12.78,12.78,0,0,1-3.94-4.89A13.94,13.94,0,0,1,0,39.93c0-.52.07-1,.1-1.56l.18-1.49c.11-1,.26-2,.4-3a49.4,49.4,0,0,1,1.21-5.95,19.13,19.13,0,0,1,2.52-5.66A15.91,15.91,0,0,1,8.92,18a35.89,35.89,0,0,1,5.42-2.84,20.34,20.34,0,0,1,6-1.53,23.1,23.1,0,0,1,6.16.15,27.06,27.06,0,0,1,5.8,1.93,13.71,13.71,0,0,1,4.9,3.48,9.44,9.44,0,0,0-2.46-1.64A19.64,19.64,0,0,0,32,16.42a25.06,25.06,0,0,0-5.72-1.17c-.49,0-1-.14-1.44-.17L23.37,15a25.3,25.3,0,0,0-2.89.12,19,19,0,0,0-5.56,1.42C11.37,18.09,7.77,20,5.65,23.13s-2.88,7.1-3.49,11c-.14,1-.28,2-.39,3l-.18,1.47c0,.48-.09,1-.09,1.43a12.36,12.36,0,0,0,1.07,5.49,13,13,0,0,0,8.57,6.82,15.45,15.45,0,0,0,5.65.49,9.53,9.53,0,0,0,2.67-.68c.2-.09.39-.2.59-.3s.34-.22.55-.38a12.43,12.43,0,0,1,1.28-.86A36.22,36.22,0,0,1,27.41,48,38.05,38.05,0,0,1,33.19,46.35Z"/><path class="cls-1" d="M41.26,21.94A10,10,0,0,1,45,24a6.45,6.45,0,0,1,.81.76,5.93,5.93,0,0,1,.74.84,3.83,3.83,0,0,1,.56,1,9.41,9.41,0,0,1,.47,1,13.22,13.22,0,0,1,.89,4.33,19.85,19.85,0,0,1-.39,4.32,27.66,27.66,0,0,1-1,4.18,7.68,7.68,0,0,1-2.49,3.82,11.14,11.14,0,0,1-4.17,1.6c-1.38.3-2.73.58-4.06.92l.56-.71a23,23,0,0,0,.34,4.23,7.27,7.27,0,0,0,.59,1.88,1.71,1.71,0,0,0,.22.36.73.73,0,0,0,.24.23c.07.1.15.06.21.12a.88.88,0,0,0,.23,0c.13,0,.26-.14.42-.33a3.5,3.5,0,0,0,.36-.8,11.22,11.22,0,0,0,.67-2c.37-1.39.59-2.86.91-4.31.09,1.48.18,3,.14,4.46A10.56,10.56,0,0,1,41,52.22a5.59,5.59,0,0,1-.59,1.17,2,2,0,0,1-2.19.92,2,2,0,0,1-.77-.36,2.27,2.27,0,0,1-.54-.53,2.62,2.62,0,0,1-.36-.58,8.32,8.32,0,0,1-.74-2.3A24.76,24.76,0,0,1,35.42,46v-.57l.57-.14c1.37-.35,2.75-.64,4.1-.94A9.6,9.6,0,0,0,43.69,43a6.2,6.2,0,0,0,2-3.1,27.92,27.92,0,0,0,1-4A18.75,18.75,0,0,0,47,32a11.63,11.63,0,0,0-.78-3.84,12.8,12.8,0,0,0-.9-1.72,4.84,4.84,0,0,0-.48-.86,6.36,6.36,0,0,0-.56-.83A11.26,11.26,0,0,0,41.26,21.94Z"/><path class="cls-1" d="M18.27,24.44a10.92,10.92,0,0,0,.09,1.35,2.93,2.93,0,0,1-.23,1.5,3.53,3.53,0,0,1-2.78,1.5,3.48,3.48,0,0,1-2.77-1.5,5,5,0,0,1,0-5.7,3.48,3.48,0,0,1,2.77-1.5,3.45,3.45,0,0,1,2.77,1.5,3.15,3.15,0,0,1,.23,1.5A13.14,13.14,0,0,0,18.27,24.44Zm0,0a1.84,1.84,0,0,0-.45-1.18,5.28,5.28,0,0,0-.91-.79,2,2,0,0,0-1.56-.88,2,2,0,0,0-1.56.88,3.45,3.45,0,0,0-.6,2,3.39,3.39,0,0,0,.6,2,2,2,0,0,0,1.56.89,2,2,0,0,0,1.56-.89,6.09,6.09,0,0,0,.9-.78A1.8,1.8,0,0,0,18.27,24.44Z"/><path class="cls-1" d="M11.43,33.33c0,.38,0,.76.05,1.22a2.46,2.46,0,0,1-.36,1.38A3.73,3.73,0,0,1,8.52,37a3.65,3.65,0,0,1-3.67-3.66,3.65,3.65,0,0,1,3.67-3.67,3.68,3.68,0,0,1,2.59,1.07,2.54,2.54,0,0,1,.36,1.37C11.47,32.56,11.43,33,11.43,33.33Zm0,0a1.31,1.31,0,0,0-.47-1,3.8,3.8,0,0,0-.91-.53,2.17,2.17,0,1,0-1.53,3.7A2.07,2.07,0,0,0,10,34.85a3.74,3.74,0,0,0,.91-.52A1.27,1.27,0,0,0,11.43,33.33Z"/><path class="cls-1" d="M16.15,44.21c0,.41.05.83.08,1.31A2.71,2.71,0,0,1,16,47a3.56,3.56,0,0,1-2.71,1.33A3.48,3.48,0,0,1,10.53,47a4.43,4.43,0,0,1,0-5.51,3.52,3.52,0,0,1,2.71-1.35A3.55,3.55,0,0,1,16,41.46a2.78,2.78,0,0,1,.27,1.46C16.19,43.39,16.15,43.8,16.15,44.21Zm0,0a1.61,1.61,0,0,0-.46-1.12,5.16,5.16,0,0,0-.9-.69,2,2,0,0,0-1.55-.79,2.64,2.64,0,0,0,0,5.2A2,2,0,0,0,14.78,46a5.16,5.16,0,0,0,.9-.69A1.54,1.54,0,0,0,16.15,44.21Z"/><path class="cls-1" d="M29.9,21.94A13.12,13.12,0,0,0,30,23.28a2.94,2.94,0,0,1-.22,1.51A3.55,3.55,0,0,1,27,26.29a3.5,3.5,0,0,1-2.77-1.5,5,5,0,0,1,0-5.7,3.31,3.31,0,0,1,5.54,0,3.15,3.15,0,0,1,.23,1.5A13.14,13.14,0,0,0,29.9,21.94Zm0,0a1.83,1.83,0,0,0-.46-1.19,5.22,5.22,0,0,0-.9-.78,1.82,1.82,0,0,0-3.12,0,3.47,3.47,0,0,0,0,3.93,2,2,0,0,0,1.56.89,1.94,1.94,0,0,0,1.55-.89,5.62,5.62,0,0,0,.9-.78A1.76,1.76,0,0,0,29.9,21.94Z"/></g></g></svg>