<svg xmlns="http://www.w3.org/2000/svg" viewBox="0 0 58.34 53.28"><defs><style>.cls-1{fill:#d9d6c7;}</style></defs><g id="레이어_2" data-name="레이어 2"><g id="레이어_3" data-name="레이어 3"><path class="cls-1" d="M13.18,52.76l15.59-.34-.16,0a1.63,1.63,0,0,0,.62-.66,1,1,0,0,0,0-.78,3.6,3.6,0,0,0-1.39-1.41,13.49,13.49,0,0,0-1.92-1c-.65-.32-1.36-.57-2-.85l-.67-.28.48-.54a68.33,68.33,0,0,0,6-7.87A33.73,33.73,0,0,0,34,30.27a15.85,15.85,0,0,0,.5-2.35,15.93,15.93,0,0,0,0-2.39,25.49,25.49,0,0,0-.74-4.82,6.4,6.4,0,0,0-2.47-3.8,11.12,11.12,0,0,0-4.47-1.5l-.42-.07V6.17L26.57,6A17.58,17.58,0,0,0,30,2.88a3.26,3.26,0,0,0,.5-.9c.07-.3,0-.43-.12-.57a1.84,1.84,0,0,0-.87-.32A7.92,7.92,0,0,0,28.38,1H18.77V0h.31V1H9.48a8.06,8.06,0,0,0-1.12.09,1.89,1.89,0,0,0-.87.32c-.16.14-.18.27-.11.57a3.49,3.49,0,0,0,.49.9A17.36,17.36,0,0,0,11.29,6l.21.16v9.17l-.42.07a11.11,11.11,0,0,0-4.48,1.5,6.39,6.39,0,0,0-2.46,3.8,25.49,25.49,0,0,0-.75,4.82,15.91,15.91,0,0,0,0,2.39,15.83,15.83,0,0,0,.49,2.35,33.76,33.76,0,0,0,4.3,8.78,66.12,66.12,0,0,0,6,7.87l.47.54-.67.28c-.68.28-1.38.53-2,.85a11.72,11.72,0,0,0-1.92,1A3.54,3.54,0,0,0,8.58,51a1.08,1.08,0,0,0,0,.79,1.71,1.71,0,0,0,.63.65l-.16,0,15.59.34L9.08,53.1H9l-.08,0A2.42,2.42,0,0,1,8,52.15a1.78,1.78,0,0,1-.13-1.39A4.24,4.24,0,0,1,9.47,48.9a13.18,13.18,0,0,1,2-1.19c.68-.37,1.4-.62,2.1-.92l-.2.81a72.91,72.91,0,0,1-6-8,34.78,34.78,0,0,1-4.42-9.06A17.48,17.48,0,0,1,2.38,28a18.48,18.48,0,0,1,0-2.58,26.24,26.24,0,0,1,.79-5A7.27,7.27,0,0,1,6,16.09a11.77,11.77,0,0,1,4.88-1.66l-.42.49V6.42l.21.41A18.33,18.33,0,0,1,7.07,3.47a4.17,4.17,0,0,1-.65-1.2,1.79,1.79,0,0,1,0-.84A1.43,1.43,0,0,1,6.84.65,2.73,2.73,0,0,1,8.19.11,8,8,0,0,1,9.47,0h9.61V1h-.31V0h9.62a8.1,8.1,0,0,1,1.28.11A2.7,2.7,0,0,1,31,.65a1.37,1.37,0,0,1,.47.78,1.67,1.67,0,0,1-.05.84,3.94,3.94,0,0,1-.65,1.2,18.06,18.06,0,0,1-3.64,3.36l.22-.41v8.5l-.43-.49a11.86,11.86,0,0,1,4.89,1.66,7.36,7.36,0,0,1,2.86,4.35,26.22,26.22,0,0,1,.78,5,17.06,17.06,0,0,1,0,2.58,16.22,16.22,0,0,1-.53,2.51,34.75,34.75,0,0,1-4.41,9.06,74.29,74.29,0,0,1-6.05,8l-.19-.81c.7.3,1.42.55,2.1.92a13.61,13.61,0,0,1,2,1.18A4.3,4.3,0,0,1,30,50.75a1.8,1.8,0,0,1-.13,1.4,2.31,2.31,0,0,1-.95.91l-.07,0h-.09Z"/><path class="cls-1" d="M41.09,31.09c2.95,0,5.89-.13,8.84-.28,1.48-.07,2.93-.14,4.44-.17a6.23,6.23,0,0,1,2.34.37,2.27,2.27,0,0,1,1.63,2.13v-.07a3.85,3.85,0,0,1-.84,2.28,8.25,8.25,0,0,1-1.66,1.58A19.92,19.92,0,0,1,52,39.05a49.16,49.16,0,0,1-8.28,2.62l.39-.49v7.75l-.5-.5a7.91,7.91,0,0,1,1.86.24,5.29,5.29,0,0,1,1.73.82,4.64,4.64,0,0,1,1.3,1.42,4.94,4.94,0,0,1,.69,1.81l.1.56H32.91l.1-.56a4.94,4.94,0,0,1,.69-1.81A4.77,4.77,0,0,1,35,49.49a5.29,5.29,0,0,1,1.73-.82,7.91,7.91,0,0,1,1.86-.24l-.5.5V41.18l.4.49a49.27,49.27,0,0,1-8.29-2.62,19.92,19.92,0,0,1-3.86-2.12,8.25,8.25,0,0,1-1.66-1.58,3.85,3.85,0,0,1-.84-2.28v.07A2.27,2.27,0,0,1,25.47,31a6.24,6.24,0,0,1,2.34-.36c1.51,0,3,.1,4.44.17C35.2,31,38.14,31.1,41.09,31.09Zm0,0c-3,0-5.89.12-8.84.27l-4.4.2a7.8,7.8,0,0,0-2,.4,2,2,0,0,0-.75.46,1,1,0,0,0-.27.59v.06c0,1.19,1,2.26,2.09,3a18.85,18.85,0,0,0,3.67,2,48.45,48.45,0,0,0,8.09,2.56l.4.09v8.63l-.5,0a6.92,6.92,0,0,0-1.59.2,4.45,4.45,0,0,0-1.41.66,3.92,3.92,0,0,0-1,1.14A4.14,4.14,0,0,0,34,52.85l-.49-.57H48.68l-.5.57a4.14,4.14,0,0,0-.55-1.42,3.92,3.92,0,0,0-1-1.14,4.35,4.35,0,0,0-1.41-.66,6.92,6.92,0,0,0-1.59-.2l-.5,0V40.78l.4-.09a48.45,48.45,0,0,0,8.09-2.56,18.85,18.85,0,0,0,3.67-2c1.08-.79,2.08-1.86,2.09-3V33a1,1,0,0,0-.27-.59,2,2,0,0,0-.75-.46,7.1,7.1,0,0,0-2-.39l-4.4-.2C47,31.22,44,31.08,41.09,31.09Z"/><path class="cls-1" d="M26.13,36.14c-.84.2-1.69.35-2.53.5H8.36c-.84-.17-1.69-.3-2.53-.5.84-.21,1.69-.33,2.53-.5H23.6C24.44,35.78,25.29,35.93,26.13,36.14Z"/><path class="cls-1" d="M28.91,41.11c-.82.21-1.64.36-2.45.51H11.73c-.82-.17-1.64-.29-2.46-.5.82-.2,1.64-.33,2.46-.5H26.46C27.27,40.76,28.09,40.91,28.91,41.11Z"/><path class="cls-1" d="M11,11.59c.66-.21,1.32-.36,2-.51H24.87c.66.16,1.32.29,2,.5-.67.2-1.33.33-2,.5H13C12.32,11.94,11.66,11.79,11,11.59Z"/><path class="cls-1" d="M11,9.92A20.85,20.85,0,0,0,8.6,8.54,8.8,8.8,0,0,0,6.28,7.35a3.3,3.3,0,0,0-4.12,1.7,6.34,6.34,0,0,0-.57,1.17l-.25.61-.16.63A6.83,6.83,0,0,0,1,12.72a4.44,4.44,0,0,0,.18,1.22,3.79,3.79,0,0,0,1.39,2A6.8,6.8,0,0,0,4.75,17.5,6.27,6.27,0,0,1,2,16.71,4.93,4.93,0,0,1,.22,14.23,5.64,5.64,0,0,1,0,12.71a8.12,8.12,0,0,1,.21-1.48l.18-.71.27-.68a7.26,7.26,0,0,1,.65-1.31,5.43,5.43,0,0,1,.91-1.2,4.22,4.22,0,0,1,.61-.49c.11-.07.21-.16.32-.22l.37-.16a4.39,4.39,0,0,1,3.05-.07,10,10,0,0,1,2.6,1.32A11,11,0,0,1,11,9.92Z"/><path class="cls-1" d="M26.86,9.92a10.6,10.6,0,0,1,1.82-2.21,10,10,0,0,1,2.61-1.32,4.36,4.36,0,0,1,3,.07l.37.16a3.78,3.78,0,0,1,.33.22,4.85,4.85,0,0,1,.61.49,6.12,6.12,0,0,1,.91,1.2,8,8,0,0,1,.65,1.31l.26.68.19.71a7.32,7.32,0,0,1,.2,1.48,6.05,6.05,0,0,1-.21,1.52,4.89,4.89,0,0,1-1.74,2.48,6.19,6.19,0,0,1-2.79.79,6.8,6.8,0,0,0,2.18-1.58,3.9,3.9,0,0,0,1.39-2,4.86,4.86,0,0,0,.17-1.22,6.08,6.08,0,0,0-.18-1.26l-.16-.63-.24-.61a5.8,5.8,0,0,0-.58-1.17,3.3,3.3,0,0,0-4.12-1.7,8.59,8.59,0,0,0-2.31,1.19A20,20,0,0,0,26.86,9.92Z"/></g></g></svg>