<svg xmlns="http://www.w3.org/2000/svg" viewBox="0 0 68.76 61.62"><defs><style>.cls-1{fill:#d9d6c7;}</style></defs><g id="레이어_2" data-name="레이어 2"><g id="레이어_3" data-name="레이어 3"><path class="cls-1" d="M52.67,60.82q-6.49.33-13,.49l-6.49.16-6.49.1c-4.33,0-8.65.07-13,0s-8.66-.18-13-.29L0,61.3l.15-.69c1-4.65,1.92-9.35,2.51-14.08.32-2.36.51-4.74.69-7.12s.24-4.76.19-7.13V32l.27-.13c2.69-1.28,5.34-2.66,8-4.1s5.2-2.91,7.74-4.48,5-3.17,7.42-4.92a57.62,57.62,0,0,0,6.75-5.66L36.8,9.58l-1.41,4.19c-.6,1.79-1.27,3.5-2,5.21S31.89,22.37,31,24a45.43,45.43,0,0,1-2.88,4.82,21.19,21.19,0,0,1-3.78,4.33l.34-.79a28.59,28.59,0,0,1-1.35,8.17,37.32,37.32,0,0,1-3.21,7.49c-.71,1.15-1.37,2.34-2.18,3.42-.4.55-.77,1.12-1.18,1.65l-1.28,1.56a19.38,19.38,0,0,1-1.35,1.51l-1.39,1.46c-.95.94-2,1.81-3,2.71l-.14-.15c.9-1,1.83-1.94,2.7-2.94l1.26-1.54a16.8,16.8,0,0,0,1.21-1.57A46.62,46.62,0,0,0,19,47.44a43.27,43.27,0,0,0,2.77-7.33,27.1,27.1,0,0,0,1-7.61l0-.47.36-.32a21.39,21.39,0,0,0,3.33-4,45.29,45.29,0,0,0,2.68-4.65c.83-1.6,1.59-3.24,2.3-4.91s1.39-3.36,2-5l1.71,1.06A59,59,0,0,1,28,19.92c-2.47,1.75-5.06,3.31-7.67,4.81s-5.28,2.89-8,4.21-5.43,2.57-8.2,3.75l.26-.41c-.08,2.4-.21,4.8-.4,7.18s-.49,4.77-.75,7.15c-.59,4.75-1.18,9.49-2,14.23l-.58-.71c4.32-.11,8.65-.25,13-.29s8.65,0,13,0l6.49.1,6.49.16c4.33.09,8.66.26,13,.48Z"/><path class="cls-1" d="M.68,60.64a27.88,27.88,0,0,0,5.41-5.72A30.26,30.26,0,0,0,9.68,48a42.58,42.58,0,0,0,1.94-7.56c.2-1.29.39-2.58.5-3.89a34.19,34.19,0,0,0,.2-3.9l1.33.07a10.18,10.18,0,0,1-1.81,3.85A5.65,5.65,0,0,1,10.2,38a4.67,4.67,0,0,1-2.12.54A3.91,3.91,0,0,1,6,37.94,4.51,4.51,0,0,1,4.61,36.3a9.88,9.88,0,0,1-1-4l0-.33H4c2.5,0,5-.08,7.48-.13s5-.16,7.49-.18c5-.1,10-.06,15-.09h1.55L34.91,33a16,16,0,0,1-2.13,3.94A6.45,6.45,0,0,1,31,38.59a4,4,0,0,1-1.33.51,5.16,5.16,0,0,1-1.3,0A6.08,6.08,0,0,1,24,37a5.37,5.37,0,0,1-1-2.28,8,8,0,0,1-.09-2.34l1.71.28a11.75,11.75,0,0,1-2.06,4,6.49,6.49,0,0,1-1.78,1.5,4.7,4.7,0,0,1-2.29.56A4.92,4.92,0,0,1,16.23,38a6.23,6.23,0,0,1-1.62-1.53,10.47,10.47,0,0,1-1.72-3.86l.2,0A10.89,10.89,0,0,0,15.17,36a5.55,5.55,0,0,0,1.52,1.15,3.85,3.85,0,0,0,1.75.36A3.69,3.69,0,0,0,20.09,37a5.19,5.19,0,0,0,1.27-1.29,10.22,10.22,0,0,0,1.54-3.47L24.7,25l-.09,7.51a7.11,7.11,0,0,0,.15,1.81,3.63,3.63,0,0,0,.74,1.45,4.34,4.34,0,0,0,3,1.29,1.93,1.93,0,0,0,1.37-.27,5.36,5.36,0,0,0,1.21-1.18,14.32,14.32,0,0,0,1.82-3.36l1,1.43c-5-.15-10-.22-15-.43-2.49-.08-5-.23-7.48-.34s-5-.24-7.48-.3l.34-.33A8.55,8.55,0,0,0,5.15,36a3.83,3.83,0,0,0,1.2,1.38,3,3,0,0,0,1.72.43,3.62,3.62,0,0,0,1.7-.54A4.77,4.77,0,0,0,11,36a9.11,9.11,0,0,0,1.3-3.49l.87-5.06.46,5.13a33.79,33.79,0,0,1-.28,8.17,35.58,35.58,0,0,1-2.17,7.88,27,27,0,0,1-4.2,7L5.65,57.15c-.49.48-1,.9-1.54,1.35l-.77.66-.85.56c-.56.38-1.14.73-1.7,1.09Z"/><path class="cls-1" d="M16.1,60.62c4.33-.22,8.65-.39,13-.48L35.57,60l6.49-.1c4.33,0,8.66-.07,13,0s8.65.18,13,.29l-.58.71c-.78-4.74-1.37-9.48-2-14.23-.26-2.38-.55-4.76-.75-7.15s-.33-4.78-.41-7.18l.27.41c-2.78-1.18-5.5-2.44-8.21-3.75s-5.37-2.71-8-4.21-5.2-3.06-7.68-4.81a60.62,60.62,0,0,1-7.11-5.75l1.71-1.06c.61,1.67,1.3,3.37,2,5s1.48,3.31,2.31,4.91a41.87,41.87,0,0,0,2.68,4.65,21.34,21.34,0,0,0,3.32,4L46,32v.47a27.1,27.1,0,0,0,1,7.61,43.27,43.27,0,0,0,2.77,7.33,46.56,46.56,0,0,0,4.15,6.72,16.8,16.8,0,0,0,1.21,1.57l1.26,1.54c.88,1,1.81,1.95,2.7,2.94l-.13.15c-1-.9-2-1.77-3-2.71L54.6,56.19a19.26,19.26,0,0,1-1.34-1.51L52,53.12c-.42-.53-.79-1.1-1.19-1.65-.81-1.08-1.46-2.27-2.18-3.42a37.87,37.87,0,0,1-3.2-7.49,28.59,28.59,0,0,1-1.35-8.17l.34.79a20.89,20.89,0,0,1-3.78-4.33A43.8,43.8,0,0,1,37.74,24c-.87-1.66-1.64-3.34-2.37-5.05s-1.4-3.42-2-5.21L32,9.58l3.12,3.13a58.45,58.45,0,0,0,6.75,5.66c2.39,1.75,4.91,3.34,7.43,4.92s5.13,3,7.74,4.48,5.27,2.82,8,4.1l.27.13v.28c0,2.37,0,4.76.2,7.13s.37,4.76.68,7.12c.59,4.73,1.48,9.43,2.51,14.08l.15.69-.73,0c-4.33.11-8.66.25-13,.29s-8.66,0-13,0l-6.49-.1-6.49-.16q-6.49-.15-13-.49Z"/><path class="cls-1" d="M68,60.81c-.56-.36-1.14-.71-1.7-1.09l-.84-.56-.77-.66c-.51-.45-1-.87-1.54-1.35l-1.37-1.52a27,27,0,0,1-4.19-7,35.6,35.6,0,0,1-2.18-7.88,33.29,33.29,0,0,1-.27-8.17l.45-5.13.87,5.06A9.13,9.13,0,0,0,57.74,36,4.5,4.5,0,0,0,59,37.29a3.59,3.59,0,0,0,1.7.54,3,3,0,0,0,1.72-.43A3.8,3.8,0,0,0,63.61,36a8.56,8.56,0,0,0,.84-3.74l.33.33c-2.49.06-5,.19-7.48.3s-5,.26-7.48.34c-5,.21-10,.28-15,.43l1-1.43a14,14,0,0,0,1.83,3.36,5.54,5.54,0,0,0,1.2,1.18,1.94,1.94,0,0,0,1.37.27,4.35,4.35,0,0,0,3-1.29A3.61,3.61,0,0,0,44,34.32a7.58,7.58,0,0,0,.16-1.81L44.06,25l1.81,7.23a10,10,0,0,0,1.54,3.47A5,5,0,0,0,48.68,37a3.65,3.65,0,0,0,1.64.56,3.86,3.86,0,0,0,1.76-.36A5.86,5.86,0,0,0,53.6,36a11.27,11.27,0,0,0,2.08-3.45l.19,0a10.31,10.31,0,0,1-1.72,3.86A6.08,6.08,0,0,1,52.53,38a4.85,4.85,0,0,1-2.22.64,4.74,4.74,0,0,1-2.3-.56,6.59,6.59,0,0,1-1.77-1.5,11.57,11.57,0,0,1-2.06-4l1.71-.28a8.41,8.41,0,0,1-.09,2.34,5.49,5.49,0,0,1-1,2.28,6.1,6.1,0,0,1-4.34,2.11,5.16,5.16,0,0,1-1.3,0,3.92,3.92,0,0,1-1.33-.51A6.64,6.64,0,0,1,36,36.92,16.73,16.73,0,0,1,33.85,33l-.56-1.44h1.55c5,0,10,0,15,.09,2.49,0,5,.12,7.48.18s5,.13,7.48.13h.35v.33a9.89,9.89,0,0,1-1,4,4.51,4.51,0,0,1-1.38,1.64,3.86,3.86,0,0,1-2.09.61A4.59,4.59,0,0,1,58.57,38a5.69,5.69,0,0,1-1.65-1.43,10.31,10.31,0,0,1-1.8-3.85l1.32-.07a34.22,34.22,0,0,0,.21,3.9c.1,1.31.29,2.6.49,3.89a41.76,41.76,0,0,0,2,7.56,30.22,30.22,0,0,0,3.58,6.91,28.43,28.43,0,0,0,5.41,5.72Z"/><path class="cls-1" d="M34.25,13.44a17.16,17.16,0,0,1-.56-2.69,24.17,24.17,0,0,1-.21-2.69,12,12,0,0,1,.12-2.68c.13-.9.32-1.8.39-2.69L34.22,0l.48,2.59a2.53,2.53,0,0,0,.64,1.11,5.17,5.17,0,0,0,1,.87,10.8,10.8,0,0,0,2.55,1.08c.88.28,1.75.55,2.65.76s1.81.38,2.71.6l2.82.7L44.59,9c-1.12.57-2.28,1.09-3.46,1.57a27.63,27.63,0,0,1-3.67,1.2l-.09-.18a25.42,25.42,0,0,1,3-2.42c1-.74,2.1-1.43,3.2-2.06l.3,2c-.49-.1-1-.21-1.45-.34s-.94-.31-1.41-.46l-1.39-.56A13,13,0,0,1,38.29,7a14.18,14.18,0,0,1-2.37-1.86A8.33,8.33,0,0,1,34,2.78l.7-.09c.08.89.27,1.79.4,2.69a12.67,12.67,0,0,1,.12,2.68A26.84,26.84,0,0,1,35,10.75a16.09,16.09,0,0,1-.56,2.69Z"/></g></g></svg>