<svg xmlns="http://www.w3.org/2000/svg" viewBox="0 0 60.27 52.65"><defs><style>.cls-1{fill:#d9d6c7;}</style></defs><g id="레이어_2" data-name="레이어 2"><g id="레이어_3" data-name="레이어 3"><path class="cls-1" d="M30.07,0l-6.4,4.94L20.53,7.35c-1.05.78-2.07,1.64-3.14,2.32L4.68,18.21l-.55-1.83H55.89l-.56,1.83L42.68,9.66C41.62,9,40.61,8.11,39.57,7.32L36.44,4.9Zm0,0,6.54,3.79,3.32,1.92c1.11.66,2.26,1.25,3.35,2l13.17,8.83,2.73,1.83H.83l2.74-1.83L16.8,7.71c1.1-.77,2.24-1.36,3.36-2L23.5,3.75Z"/><path class="cls-1" d="M4.13,46.74c2.15-.42,4.31-.71,6.47-1H49.42c2.16.31,4.31.6,6.47,1-2.16.4-4.31.7-6.47,1H10.6C8.44,47.45,6.28,47.16,4.13,46.74Z"/><path class="cls-1" d="M0,51.64c2.51-.42,5-.72,7.53-1h45.2c2.51.3,5,.6,7.54,1-2.51.4-5,.69-7.54,1H7.53C5,52.35,2.51,52.05,0,51.64Z"/><path class="cls-1" d="M9.67,20.4a26,26,0,0,1,1,2.79c0,.93,0,1.87,0,2.8V40c-.3.93-.6,1.86-1,2.79-.4-.93-.7-1.86-1-2.79V26c0-.93,0-1.87,0-2.8A26,26,0,0,1,9.67,20.4Z"/><path class="cls-1" d="M17.67,20.4a26,26,0,0,1,1,2.79c0,.93,0,1.87,0,2.8V40c-.3.93-.6,1.86-1,2.79-.4-.93-.69-1.86-1-2.79V26c0-.93,0-1.87,0-2.8A26,26,0,0,1,17.67,20.4Z"/><path class="cls-1" d="M25.76,20.4a28.39,28.39,0,0,1,1,2.79c0,.93,0,1.87,0,2.8V40c-.31.93-.6,1.86-1,2.79-.4-.93-.7-1.86-1-2.79V26c0-.93,0-1.87,0-2.8A26,26,0,0,1,25.76,20.4Z"/><path class="cls-1" d="M33.93,20.4a28.39,28.39,0,0,1,1,2.79c0,.93,0,1.87,0,2.8V40c-.31.93-.6,1.86-1,2.79a28.29,28.29,0,0,1-1-2.79V26c0-.93,0-1.87,0-2.8A24,24,0,0,1,33.93,20.4Z"/><path class="cls-1" d="M42.26,20.4a26,26,0,0,1,1,2.79c0,.93,0,1.87,0,2.8V40c-.3.93-.6,1.86-1,2.79-.4-.93-.69-1.86-1-2.79V26c0-.93,0-1.87,0-2.8A26,26,0,0,1,42.26,20.4Z"/><path class="cls-1" d="M50.1,20.4a28.39,28.39,0,0,1,1,2.79c0,.93,0,1.87,0,2.8V40c-.31.93-.6,1.86-1,2.79-.4-.93-.7-1.86-1-2.79V26c0-.93,0-1.87,0-2.8A24,24,0,0,1,50.1,20.4Z"/></g></g></svg>