<svg xmlns="http://www.w3.org/2000/svg" viewBox="0 0 53.68 55.29"><defs><style>.cls-1{fill:#d9d6c7;}</style></defs><g id="레이어_2" data-name="레이어 2"><g id="레이어_3" data-name="레이어 3"><path class="cls-1" d="M43.2,54.26c-8.07,0-16.14.75-24.2,1-2,0-4,0-6.05,0H11.44c-.51,0-1,0-1.57,0a10.19,10.19,0,0,1-3.26-.71,10.49,10.49,0,0,1-5-4.22A9.91,9.91,0,0,1,.3,47.22,9,9,0,0,1,0,45.58l0-.83v-34A11.53,11.53,0,0,1,.45,7.44,10.51,10.51,0,0,1,10.48,0H42.24c.51,0,1,0,1.58,0a10.2,10.2,0,0,1,3.25.72A10.39,10.39,0,0,1,52.1,5,9.76,9.76,0,0,1,53.38,8a9.29,9.29,0,0,1,.26,1.65l0,.83v25l-.28,6-.17,3a11.21,11.21,0,0,1-.6,3.09A10.1,10.1,0,0,1,43.2,54.26Zm0,0a10.21,10.21,0,0,0,3-.5,8.73,8.73,0,0,0,2.62-1.45,8.88,8.88,0,0,0,3.14-4.88,10,10,0,0,0,.21-2.88l-.17-3-.28-6v-25l0-.68a8.38,8.38,0,0,0-.21-1.33A8.13,8.13,0,0,0,50.4,6,8.51,8.51,0,0,0,46.33,2.6,8.21,8.21,0,0,0,43.7,2c-.43,0-1,0-1.46,0H10.48A8.53,8.53,0,0,0,2.37,8,9.27,9.27,0,0,0,2,10.72v34l0,.68a8.75,8.75,0,0,0,.21,1.33,8,8,0,0,0,1,2.48,8.51,8.51,0,0,0,4.07,3.42,8.22,8.22,0,0,0,2.63.58c.43,0,.95,0,1.46,0H13c2,0,4,0,6.05,0C27.06,53.52,35.13,54.32,43.2,54.26Z"/><path class="cls-1" d="M12.34,45.55a9.77,9.77,0,0,0,.12,1.32,2.58,2.58,0,0,1-.3,1.55A4.17,4.17,0,0,1,9.29,49.6a4.06,4.06,0,0,1-4-4.05,4,4,0,0,1,6.9-2.85,2.58,2.58,0,0,1,.3,1.55A11.19,11.19,0,0,0,12.34,45.55Zm0,0a1.23,1.23,0,0,0-.58-1,3.94,3.94,0,0,0-1-.42A2,2,0,1,0,9.29,47.6,2,2,0,0,0,10.73,47a4.09,4.09,0,0,0,1-.42A1.23,1.23,0,0,0,12.34,45.55Z"/><path class="cls-1" d="M47.51,45.55a11.94,11.94,0,0,0,.13,1.32,2.58,2.58,0,0,1-.3,1.55,4.17,4.17,0,0,1-2.87,1.18,4.11,4.11,0,0,1-2.86-1.19,4,4,0,1,1,5.72-5.71,2.66,2.66,0,0,1,.3,1.55C47.58,44.75,47.51,45.16,47.51,45.55Zm0,0a1.22,1.22,0,0,0-.57-1,3.94,3.94,0,0,0-1-.42,2,2,0,1,0-1.45,3.49A2,2,0,0,0,45.91,47a4.09,4.09,0,0,0,1-.42A1.19,1.19,0,0,0,47.51,45.55Z"/><path class="cls-1" d="M32.78,27.47c0,.77,0,1.56-.1,2.42a5,5,0,0,1-.93,2.49,6.94,6.94,0,1,1,0-9.82,5.29,5.29,0,0,1,.92,2.49A22.67,22.67,0,0,1,32.78,27.47Zm0,0a3.31,3.31,0,0,0-.8-2.13A7,7,0,0,0,30.33,24a4.95,4.95,0,0,0-7,0,4.95,4.95,0,0,0,3.49,8.44A4.88,4.88,0,0,0,30.33,31,7.79,7.79,0,0,0,32,29.59,3.22,3.22,0,0,0,32.78,27.47Z"/><path class="cls-1" d="M44.3,27.47a23.94,23.94,0,0,1-1,6.83,16.41,16.41,0,0,1-3.43,6.23,18.47,18.47,0,1,1,0-26.12,16.66,16.66,0,0,1,3.42,6.23A23.85,23.85,0,0,1,44.3,27.47Zm0,0a13.7,13.7,0,0,0-1.67-6.54,18.81,18.81,0,0,0-4.15-5.11,16.47,16.47,0,1,0,0,23.28A19.11,19.11,0,0,0,42.62,34,13.7,13.7,0,0,0,44.3,27.47Z"/><path class="cls-1" d="M34.51,21.53a11.36,11.36,0,0,0,1.8-1.71,11.86,11.86,0,0,0,1.89-1.21,21.88,21.88,0,0,0,3.31-3.22c.52-.58,1-1.24,1.45-1.85s.89-1.29,1.32-1.95.82-1.35,1.22-2c.64-.55,1.27-1.11,2-1.64a22.8,22.8,0,0,1-.27,2.62c-.41.72-.85,1.42-1.27,2.12s-.92,1.38-1.39,2.06-1,1.34-1.55,2a22.72,22.72,0,0,1-3.62,3.51,16.22,16.22,0,0,1-2.17,1.42A5.86,5.86,0,0,1,34.51,21.53Z"/><path class="cls-1" d="M27.51,14.25a23.51,23.51,0,0,0-2.46,1.26,11.68,11.68,0,0,0-6.35,3.56,14,14,0,0,0-2.53,4.26,24.41,24.41,0,0,0-.74,2.43c-.46.77-.88,1.58-1.43,2.41a21.89,21.89,0,0,1-.52-2.86c.28-.9.46-1.82.82-2.69a15.93,15.93,0,0,1,2.92-4.89A13.46,13.46,0,0,1,21.9,14.4a16.77,16.77,0,0,1,2.74-.87A8.48,8.48,0,0,1,27.51,14.25Z"/><path class="cls-1" d="M26.09,40.43a24.14,24.14,0,0,0,2.55-1.18c.42,0,.83-.16,1.25-.25s.81-.24,1.2-.38a11.08,11.08,0,0,0,4.19-2.68A9.32,9.32,0,0,0,36.1,35l.39-.49.32-.54c.21-.37.46-.71.63-1.09l.5-1.18a6.39,6.39,0,0,0,.41-1.21c.12-.41.21-.83.34-1.24.46-.79.86-1.63,1.4-2.48a20.8,20.8,0,0,1,.56,2.91c-.12.46-.27.92-.39,1.38a7.57,7.57,0,0,1-.45,1.37l-.57,1.33c-.21.44-.49.85-.73,1.27l-.38.63-.46.58a11.23,11.23,0,0,1-1,1.11,13.12,13.12,0,0,1-4.92,3.16c-.46.16-.93.29-1.4.44s-.94.23-1.42.3A8.89,8.89,0,0,1,26.09,40.43Z"/></g></g></svg>