<svg xmlns="http://www.w3.org/2000/svg" viewBox="0 0 55.48 54.66"><defs><style>.cls-1{fill:#d9d6c7;}</style></defs><g id="레이어_2" data-name="레이어 2"><g id="레이어_3" data-name="레이어 3"><path class="cls-1" d="M3.47,53.78l19.72-.53,9.68-.2,9.61-.14-.87.87-.09-12.17,0-12.17,1,1c-6.5,0-13,0-19.5-.09s-13-.14-19.51-.25l.67-.66c-.09,4-.17,8-.31,12Zm0,0-.35-12c-.15-4-.23-8.18-.32-12.31v-.66h.68q9.75-.16,19.51-.25c6.5-.07,13-.05,19.5-.08h1v1l0,12.17-.1,12.17v.88h-.86l-9.89-.14-9.83-.21Z"/><path class="cls-1" d="M42.48,36.44c1.87-1.39,3.79-2.69,5.73-4s3.88-2.53,5.84-3.76l1.26-.79,0,1.53c0,1.95.12,3.89.12,5.84s0,3.9,0,5.85c0,3.89-.12,7.79-.29,11.69l0,1.23-1-.63c-1.35-.86-2.71-1.7-4-2.59s-2.67-1.79-4-2.72c1.48.63,2.94,1.3,4.39,2s2.89,1.4,4.33,2.11l-1,.61c-.17-3.9-.28-7.8-.29-11.69,0-2,0-3.9,0-5.85s.07-3.89.11-5.84l1.29.74c-2,1.09-4.09,2.19-6.16,3.23S44.61,35.49,42.48,36.44Z"/><path class="cls-1" d="M49.26,12.77A12.79,12.79,0,0,1,37,25.52,12.91,12.91,0,0,1,27.73,22a13.25,13.25,0,0,1-2.94-4.22,13.26,13.26,0,0,1-1-5.05,13.27,13.27,0,0,1,1-5.06,12.76,12.76,0,0,1,24.47,5.06Zm0,0a12.48,12.48,0,0,0-1-4.68A11.73,11.73,0,0,0,37,1a11.77,11.77,0,0,0-8.06,19.81A11.63,11.63,0,0,0,37,24.52a11.88,11.88,0,0,0,8.57-3.19,12,12,0,0,0,2.72-3.89A12.47,12.47,0,0,0,49.26,12.77Z"/><path class="cls-1" d="M41.31,12.77a4.81,4.81,0,0,1-8,3.65,4.86,4.86,0,0,1,0-7.31A4.74,4.74,0,0,1,37,8a4.84,4.84,0,0,1,3.15,1.67A4.79,4.79,0,0,1,41.31,12.77Zm0,0A3.86,3.86,0,0,0,40,9.82,3.74,3.74,0,0,0,37,9a3.85,3.85,0,1,0,4.31,3.81Z"/><path class="cls-1" d="M20.46,15.29a10.25,10.25,0,0,1-9.73,10.23,10.41,10.41,0,0,1-7.49-2.74,10.58,10.58,0,0,1-2.39-3.4A10.66,10.66,0,0,1,0,15.29a10.67,10.67,0,0,1,.85-4.1,10.23,10.23,0,0,1,9.88-6.14,10.27,10.27,0,0,1,9.73,10.24Zm0,0a9.77,9.77,0,0,0-.77-3.71A9.59,9.59,0,0,0,17.51,8.5a9.35,9.35,0,0,0-6.78-2.44,9.24,9.24,0,0,0-6.27,15.5,9.11,9.11,0,0,0,6.27,3,9.31,9.31,0,0,0,6.78-2.45A9.55,9.55,0,0,0,19.69,19,9.85,9.85,0,0,0,20.46,15.29Z"/><path class="cls-1" d="M14.16,15.29a4,4,0,0,1-3.43,3.92,3.9,3.9,0,0,1-3-.89,4,4,0,0,1,0-6.07,3.89,3.89,0,0,1,3-.89A4,4,0,0,1,14.16,15.29Zm0,0A3.06,3.06,0,0,0,13.06,13a3,3,0,1,0-2.33,5.25,2.88,2.88,0,0,0,2.33-.6A3,3,0,0,0,14.16,15.29Z"/></g></g></svg>