<svg xmlns="http://www.w3.org/2000/svg" viewBox="0 0 61.98 50.61"><defs><style>.cls-1{fill:#d9d6c7;}</style></defs><g id="레이어_2" data-name="레이어 2"><g id="레이어_3" data-name="레이어 3"><path class="cls-1" d="M48.31,49.94c-6.75.18-13.5.28-20.25.41s-13.5.17-20.26.26H7.68a13.92,13.92,0,0,1-4.47-1.68A7.74,7.74,0,0,1,1.3,47.29a4.93,4.93,0,0,1-1.08-2.4l-.07-.67V42.51l0-2.27,0-4.53L0,17.56V15.85a7,7,0,0,1,.05-.7,6.72,6.72,0,0,1,.89-2.47A7.29,7.29,0,0,1,5,9.57a14.76,14.76,0,0,1,4.79-.65c1.53,0,3.06.05,4.56.09a18.39,18.39,0,0,0,4.22-.19A1.78,1.78,0,0,0,19.72,8a5.2,5.2,0,0,0,.47-1.8,11,11,0,0,1,.52-2.44,4.71,4.71,0,0,1,1.66-2.25A10,10,0,0,1,27.18.15C30.3-.07,33.31,0,36.34,0c1.52,0,3,0,4.58.1a16.63,16.63,0,0,1,4.73.72,4.45,4.45,0,0,1,2.23,1.63A4.85,4.85,0,0,1,48.65,5l.05,1.11a5.41,5.41,0,0,0,.17.94,2.38,2.38,0,0,0,1,1.34c1,.64,2.45.67,3.94.67a12.09,12.09,0,0,1,4.76.7,5.41,5.41,0,0,1,3.21,3.83A10.54,10.54,0,0,1,62,14.86c0,.39,0,.82,0,1.19l0,2.27-.11,9.08-.31,18.16v0a3.51,3.51,0,0,1-1,2.41,5.48,5.48,0,0,1-2.19,1.34,10.68,10.68,0,0,1-2.48.54,23.6,23.6,0,0,1-2.52.11,23.22,23.22,0,0,0,2.5-.23,10.47,10.47,0,0,0,2.41-.65,5.37,5.37,0,0,0,2-1.35,3.09,3.09,0,0,0,.85-2.13v0L60.78,27.4l-.1-9.08,0-2.27c0-.38,0-.71,0-1.06a8.19,8.19,0,0,0-.19-1A4,4,0,0,0,58,11.17a10.74,10.74,0,0,0-4.18-.49,21,21,0,0,1-2.36,0,5.79,5.79,0,0,1-2.51-.79A4,4,0,0,1,47.25,7.6,5.54,5.54,0,0,1,47,6.31l-.07-1.16a3.26,3.26,0,0,0-.48-1.71,2.75,2.75,0,0,0-1.4-1,15.57,15.57,0,0,0-4.21-.59c-1.49,0-3-.06-4.5-.06-3,0-6.07,0-9,.21a8.34,8.34,0,0,0-3.85,1c-.9.62-1.21,1.89-1.35,3.35a7.14,7.14,0,0,1-.7,2.55,3.76,3.76,0,0,1-1,1.16,4.56,4.56,0,0,1-1.34.64,17.82,17.82,0,0,1-4.82.24c-1.52-.05-3-.12-4.51-.12a13.23,13.23,0,0,0-4.17.51,5.51,5.51,0,0,0-3,2.28,4.8,4.8,0,0,0-.65,1.76,3.88,3.88,0,0,0,0,.42v1.71L1.78,35.7l0,4.54,0,2.27,0,1.14v.56l0,.46a4.39,4.39,0,0,0,2.23,3,12.3,12.3,0,0,0,3.94,1.58H7.8c6.76.09,13.51.12,20.26.27S41.56,49.75,48.31,49.94Z"/><path class="cls-1" d="M25.31,9l4.81-.37c1.56-.11,3.1-.22,4.6-.3,3-.19,5.91-.3,8.84-.31l-1,1a3.23,3.23,0,0,0-.27-1,3,3,0,0,0-.59-.79,3,3,0,0,0-1.95-.71L34.22,6.4c-1.86-.08-3.73-.17-5.59-.3l-.7,0-.35,0a1.19,1.19,0,0,0-.26,0,1.81,1.81,0,0,0-1,.53A4.14,4.14,0,0,0,25.31,9Zm0,0a4.1,4.1,0,0,1,.52-2.83,2.43,2.43,0,0,1,1.3-1,1.79,1.79,0,0,1,.43-.08l.35,0,.7,0c1.86-.13,3.73-.22,5.6-.3s3.69-.14,5.64-.12a4.92,4.92,0,0,1,3.2,1.16,4.14,4.14,0,0,1,1.06,1.44,4.89,4.89,0,0,1,.43,1.72l.08,1H43.56c-3.15,0-6.33-.13-9.4-.31-1.55-.08-3.06-.19-4.54-.3S26.69,9.12,25.31,9Z"/><path class="cls-1" d="M43.91,27.82a10,10,0,0,1-9.47,10,9.9,9.9,0,0,1-9.64-6,10,10,0,0,1,0-8,9.9,9.9,0,0,1,9.64-6,10,10,0,0,1,9.47,10Zm0,0a9.53,9.53,0,0,0-.76-3.61,8.94,8.94,0,0,0-8.71-5.36,9,9,0,0,0-6.09,15.06,8.82,8.82,0,0,0,6.09,2.88,8.91,8.91,0,0,0,8.71-5.36A9.49,9.49,0,0,0,43.91,27.82Z"/><path class="cls-1" d="M49,28.09a15.11,15.11,0,0,1-14.59,15.1A15.08,15.08,0,0,1,20.06,34a15.14,15.14,0,0,1,0-11.91,15.1,15.1,0,0,1,29,6Zm0,0a14.56,14.56,0,0,0-1.14-5.57A14.09,14.09,0,0,0,34.44,14a14.11,14.11,0,0,0,0,28.2,14.09,14.09,0,0,0,13.45-8.53A14.56,14.56,0,0,0,49,28.09Z"/><path class="cls-1" d="M57.8,17.44a3.78,3.78,0,0,1-3.24,3.73,3.72,3.72,0,0,1-2.9-.83,3.83,3.83,0,0,1,0-5.81,3.75,3.75,0,0,1,6.15,2.91Zm0,0a2.82,2.82,0,0,0-1-2.2,2.7,2.7,0,0,0-2.19-.54,2.8,2.8,0,0,0,0,5.48,2.7,2.7,0,0,0,2.19-.55A2.82,2.82,0,0,0,57.8,17.44Z"/><path class="cls-1" d="M13.43,14.8c.41,2.6.63,5.19.78,7.78s.2,5.19.22,7.79-.06,5.19-.22,7.78a75.63,75.63,0,0,1-.78,7.78,75.63,75.63,0,0,1-.78-7.78c-.16-2.59-.2-5.19-.22-7.78s.06-5.19.22-7.79S13,17.4,13.43,14.8Z"/><path class="cls-1" d="M7,10.05a4,4,0,0,1-.35-3.48A3,3,0,0,1,8.1,5,4.34,4.34,0,0,1,10,4.57c.32,0,.64,0,1,.09A4.33,4.33,0,0,1,12,5a3.26,3.26,0,0,1,1.5,1.41,3.82,3.82,0,0,1,0,3.49,6,6,0,0,0-1.27-2.6,2.88,2.88,0,0,0-2.11-.71,2.43,2.43,0,0,0-2,.76A6.37,6.37,0,0,0,7,10.05Z"/></g></g></svg>